<svg width="1324" height="431" viewBox="0 0 1324 431" fill="none" xmlns="http://www.w3.org/2000/svg">
<g clip-path="url(#clip0_115_582)">
<rect x="0.478516" y="0.49707" width="1323.04" height="429.597" rx="45.9933" fill="#FFF8EE"/>
<circle cx="22" cy="396" r="186" fill="#FF9E0B"/>
<path d="M296.989 365.019C338.416 292.277 453.562 152.079 582.735 173.217C659.064 185.707 611.114 248.568 582.735 236.335C562.837 229.974 536.937 207.271 592.521 167.345C648.104 127.419 821.183 83.8396 900.774 67.0407" stroke="#FFA7A7" stroke-width="1.95716" stroke-dasharray="3.91 3.91"/>
<circle cx="1292.02" cy="-4.98386" r="182.016" fill="#FF9E0B"/>
<path d="M495.224 77.8446C493.406 77.8446 491.664 77.5895 490.001 77.0793C488.337 76.547 487.017 75.8705 486.041 75.0498L487.539 71.6893C488.47 72.4213 489.624 73.0313 490.999 73.5193C492.374 74.0072 493.783 74.2512 495.224 74.2512C496.444 74.2512 497.432 74.1182 498.186 73.852C498.94 73.5858 499.494 73.2309 499.849 72.7873C500.204 72.3215 500.382 71.8002 500.382 71.2235C500.382 70.5137 500.127 69.9481 499.616 69.5266C499.106 69.083 498.441 68.7392 497.62 68.4952C496.822 68.229 495.923 67.9851 494.925 67.7632C493.949 67.5414 492.962 67.2863 491.964 66.998C490.988 66.6875 490.09 66.2993 489.269 65.8335C488.47 65.3455 487.816 64.7022 487.306 63.9037C486.796 63.1052 486.541 62.0849 486.541 60.8427C486.541 59.5784 486.873 58.425 487.539 57.3825C488.226 56.3178 489.258 55.4749 490.633 54.8538C492.03 54.2105 493.794 53.8889 495.923 53.8889C497.321 53.8889 498.707 54.0664 500.082 54.4213C501.457 54.7762 502.655 55.2863 503.676 55.9518L502.311 59.3122C501.269 58.6911 500.193 58.2364 499.084 57.9481C497.975 57.6375 496.91 57.4823 495.89 57.4823C494.692 57.4823 493.716 57.6264 492.962 57.9148C492.23 58.2032 491.687 58.5802 491.332 59.046C490.999 59.5118 490.833 60.0442 490.833 60.6431C490.833 61.3529 491.077 61.9296 491.565 62.3732C492.075 62.7947 492.729 63.1274 493.528 63.3714C494.348 63.6154 495.258 63.8594 496.256 64.1033C497.254 64.3252 498.241 64.5802 499.217 64.8686C500.215 65.157 501.114 65.534 501.912 65.9998C502.733 66.4656 503.387 67.0978 503.875 67.8963C504.385 68.6949 504.64 69.7041 504.64 70.9241C504.64 72.1662 504.297 73.3196 503.609 74.3843C502.944 75.4268 501.912 76.2697 500.515 76.913C499.117 77.5341 497.354 77.8446 495.224 77.8446ZM515.218 77.7448C513.266 77.7448 511.757 77.2457 510.693 76.2475C509.628 75.2272 509.096 73.73 509.096 71.7559V55.8187H513.255V71.656C513.255 72.4989 513.465 73.1533 513.887 73.6191C514.33 74.0849 514.94 74.3178 515.717 74.3178C516.648 74.3178 517.425 74.0738 518.046 73.5858L519.21 76.547C518.722 76.9463 518.123 77.2457 517.414 77.4453C516.704 77.645 515.972 77.7448 515.218 77.7448ZM506.168 63.205V59.8778H518.013V63.205H506.168ZM530.032 77.7448C528.213 77.7448 526.594 77.3566 525.174 76.5803C523.755 75.7817 522.635 74.6949 521.814 73.3196C520.993 71.9444 520.583 70.3806 520.583 68.6283C520.583 66.8538 520.993 65.29 521.814 63.937C522.635 62.5618 523.755 61.486 525.174 60.7096C526.594 59.9333 528.213 59.5451 530.032 59.5451C531.873 59.5451 533.503 59.9333 534.923 60.7096C536.365 61.486 537.485 62.5507 538.283 63.9037C539.104 65.2568 539.514 66.8316 539.514 68.6283C539.514 70.3806 539.104 71.9444 538.283 73.3196C537.485 74.6949 536.365 75.7817 534.923 76.5803C533.503 77.3566 531.873 77.7448 530.032 77.7448ZM530.032 74.1847C531.052 74.1847 531.962 73.9629 532.76 73.5193C533.559 73.0756 534.18 72.4324 534.623 71.5895C535.089 70.7466 535.322 69.7595 535.322 68.6283C535.322 67.4749 535.089 66.4878 534.623 65.6671C534.18 64.8242 533.559 64.181 532.76 63.7374C531.962 63.2937 531.063 63.0719 530.065 63.0719C529.045 63.0719 528.135 63.2937 527.337 63.7374C526.561 64.181 525.94 64.8242 525.474 65.6671C525.008 66.4878 524.775 67.4749 524.775 68.6283C524.775 69.7595 525.008 70.7466 525.474 71.5895C525.94 72.4324 526.561 73.0756 527.337 73.5193C528.135 73.9629 529.034 74.1847 530.032 74.1847ZM553.34 77.7448C551.898 77.7448 550.578 77.4121 549.381 76.7466C548.205 76.0812 547.262 75.083 546.552 73.7522C545.865 72.3991 545.521 70.6912 545.521 68.6283C545.521 66.5433 545.854 64.8353 546.519 63.5045C547.207 62.1736 548.138 61.1865 549.314 60.5433C550.49 59.8778 551.832 59.5451 553.34 59.5451C555.092 59.5451 556.634 59.9222 557.965 60.6764C559.318 61.4305 560.382 62.4841 561.159 63.8372C561.957 65.1902 562.357 66.7873 562.357 68.6283C562.357 70.4693 561.957 72.0775 561.159 73.4527C560.382 74.8058 559.318 75.8594 557.965 76.6135C556.634 77.3677 555.092 77.7448 553.34 77.7448ZM543.491 83.9666V59.7447H547.451V63.937L547.318 68.6616L547.65 73.3862V83.9666H543.491ZM552.874 74.1847C553.872 74.1847 554.759 73.9629 555.536 73.5193C556.334 73.0756 556.966 72.4324 557.432 71.5895C557.898 70.7466 558.131 69.7595 558.131 68.6283C558.131 67.4749 557.898 66.4878 557.432 65.6671C556.966 64.8242 556.334 64.181 555.536 63.7374C554.759 63.2937 553.872 63.0719 552.874 63.0719C551.876 63.0719 550.978 63.2937 550.179 63.7374C549.381 64.181 548.748 64.8242 548.283 65.6671C547.817 66.4878 547.584 67.4749 547.584 68.6283C547.584 69.7595 547.817 70.7466 548.283 71.5895C548.748 72.4324 549.381 73.0756 550.179 73.5193C550.978 73.9629 551.876 74.1847 552.874 74.1847ZM580.986 77.7448C579.5 77.7448 578.069 77.5562 576.694 77.1792C575.341 76.7799 574.265 76.303 573.466 75.7485L575.063 72.5876C575.862 73.0978 576.816 73.5193 577.925 73.852C579.034 74.1847 580.143 74.3511 581.252 74.3511C582.561 74.3511 583.503 74.1736 584.08 73.8187C584.679 73.4638 584.978 72.9869 584.978 72.388C584.978 71.9 584.779 71.534 584.38 71.2901C583.98 71.0239 583.459 70.8242 582.816 70.6912C582.173 70.5581 581.452 70.4361 580.653 70.3252C579.877 70.2143 579.089 70.0701 578.291 69.8926C577.514 69.693 576.805 69.4157 576.161 69.0608C575.518 68.6838 574.997 68.1847 574.598 67.5636C574.198 66.9425 573.999 66.1218 573.999 65.1015C573.999 63.9703 574.32 62.9943 574.964 62.1736C575.607 61.3307 576.505 60.6874 577.659 60.2438C578.834 59.778 580.221 59.5451 581.818 59.5451C583.015 59.5451 584.224 59.6782 585.444 59.9444C586.664 60.2106 587.673 60.5876 588.472 61.0756L586.875 64.2364C586.032 63.7263 585.178 63.3825 584.313 63.205C583.47 63.0054 582.627 62.9056 581.784 62.9056C580.52 62.9056 579.577 63.0941 578.956 63.4712C578.357 63.8483 578.058 64.3252 578.058 64.9019C578.058 65.4342 578.258 65.8335 578.657 66.0997C579.056 66.3658 579.577 66.5766 580.221 66.7318C580.864 66.8871 581.574 67.0202 582.35 67.1311C583.148 67.2198 583.936 67.364 584.712 67.5636C585.489 67.7632 586.198 68.0405 586.842 68.3954C587.507 68.7281 588.039 69.205 588.439 69.8261C588.838 70.4472 589.038 71.2568 589.038 72.2549C589.038 73.364 588.705 74.3289 588.039 75.1496C587.396 75.9703 586.476 76.6135 585.278 77.0793C584.08 77.523 582.649 77.7448 580.986 77.7448ZM599.307 77.7448C597.355 77.7448 595.847 77.2457 594.782 76.2475C593.717 75.2272 593.185 73.73 593.185 71.7559V55.8187H597.344V71.656C597.344 72.4989 597.555 73.1533 597.976 73.6191C598.42 74.0849 599.03 74.3178 599.806 74.3178C600.738 74.3178 601.514 74.0738 602.135 73.5858L603.299 76.547C602.811 76.9463 602.213 77.2457 601.503 77.4453C600.793 77.645 600.061 77.7448 599.307 77.7448ZM590.257 63.205V59.8778H602.102V63.205H590.257ZM606.721 77.5119V59.7447H610.68V64.6357L610.214 63.205C610.747 62.0072 611.578 61.0978 612.71 60.4767C613.863 59.8557 615.294 59.5451 617.002 59.5451V63.5045C616.824 63.4601 616.658 63.4379 616.503 63.4379C616.347 63.4157 616.192 63.4046 616.037 63.4046C614.462 63.4046 613.209 63.8704 612.277 64.8021C611.346 65.7115 610.88 67.0756 610.88 68.8945V77.5119H606.721ZM628.719 77.7448C626.744 77.7448 625.014 77.3566 623.528 76.5803C622.064 75.7817 620.922 74.6949 620.101 73.3196C619.303 71.9444 618.903 70.3806 618.903 68.6283C618.903 66.8538 619.292 65.29 620.068 63.937C620.866 62.5618 621.953 61.486 623.329 60.7096C624.726 59.9333 626.312 59.5451 628.086 59.5451C629.817 59.5451 631.358 59.9222 632.711 60.6764C634.064 61.4305 635.129 62.4952 635.905 63.8704C636.682 65.2457 637.07 66.8649 637.07 68.7281C637.07 68.9056 637.059 69.1052 637.037 69.327C637.037 69.5488 637.025 69.7595 637.003 69.9592H622.197V67.1976H634.807L633.177 68.0627C633.199 67.0424 632.988 66.144 632.545 65.3677C632.101 64.5913 631.491 63.9814 630.715 63.5377C629.961 63.0941 629.085 62.8723 628.086 62.8723C627.066 62.8723 626.168 63.0941 625.391 63.5377C624.637 63.9814 624.038 64.6024 623.595 65.4009C623.173 66.1773 622.963 67.0978 622.963 68.1625V68.8279C622.963 69.8926 623.207 70.8353 623.695 71.656C624.183 72.4767 624.87 73.1089 625.757 73.5525C626.645 73.9962 627.665 74.218 628.818 74.218C629.817 74.218 630.715 74.0627 631.513 73.7522C632.312 73.4416 633.022 72.9536 633.643 72.2882L635.872 74.8501C635.074 75.7817 634.064 76.5026 632.844 77.0128C631.647 77.5008 630.271 77.7448 628.719 77.7448ZM646.555 77.7448C645.068 77.7448 643.638 77.5562 642.263 77.1792C640.909 76.7799 639.834 76.303 639.035 75.7485L640.632 72.5876C641.431 73.0978 642.385 73.5193 643.494 73.852C644.603 74.1847 645.712 74.3511 646.821 74.3511C648.129 74.3511 649.072 74.1736 649.649 73.8187C650.248 73.4638 650.547 72.9869 650.547 72.388C650.547 71.9 650.348 71.534 649.948 71.2901C649.549 71.0239 649.028 70.8242 648.385 70.6912C647.741 70.5581 647.02 70.4361 646.222 70.3252C645.446 70.2143 644.658 70.0701 643.86 69.8926C643.083 69.693 642.373 69.4157 641.73 69.0608C641.087 68.6838 640.566 68.1847 640.166 67.5636C639.767 66.9425 639.568 66.1218 639.568 65.1015C639.568 63.9703 639.889 62.9943 640.532 62.1736C641.176 61.3307 642.074 60.6874 643.227 60.2438C644.403 59.778 645.789 59.5451 647.386 59.5451C648.584 59.5451 649.793 59.6782 651.013 59.9444C652.233 60.2106 653.242 60.5876 654.041 61.0756L652.444 64.2364C651.601 63.7263 650.747 63.3825 649.882 63.205C649.039 63.0054 648.196 62.9056 647.353 62.9056C646.089 62.9056 645.146 63.0941 644.525 63.4712C643.926 63.8483 643.627 64.3252 643.627 64.9019C643.627 65.4342 643.826 65.8335 644.226 66.0997C644.625 66.3658 645.146 66.5766 645.789 66.7318C646.433 66.8871 647.142 67.0202 647.919 67.1311C648.717 67.2198 649.505 67.364 650.281 67.5636C651.057 67.7632 651.767 68.0405 652.41 68.3954C653.076 68.7281 653.608 69.205 654.007 69.8261C654.407 70.4472 654.606 71.2568 654.606 72.2549C654.606 73.364 654.274 74.3289 653.608 75.1496C652.965 75.9703 652.044 76.6135 650.847 77.0793C649.649 77.523 648.218 77.7448 646.555 77.7448ZM663.678 77.7448C662.192 77.7448 660.761 77.5562 659.386 77.1792C658.033 76.7799 656.957 76.303 656.158 75.7485L657.755 72.5876C658.554 73.0978 659.508 73.5193 660.617 73.852C661.726 74.1847 662.835 74.3511 663.944 74.3511C665.253 74.3511 666.195 74.1736 666.772 73.8187C667.371 73.4638 667.67 72.9869 667.67 72.388C667.67 71.9 667.471 71.534 667.072 71.2901C666.672 71.0239 666.151 70.8242 665.508 70.6912C664.865 70.5581 664.144 70.4361 663.345 70.3252C662.569 70.2143 661.781 70.0701 660.983 69.8926C660.207 69.693 659.497 69.4157 658.853 69.0608C658.21 68.6838 657.689 68.1847 657.29 67.5636C656.89 66.9425 656.691 66.1218 656.691 65.1015C656.691 63.9703 657.012 62.9943 657.656 62.1736C658.299 61.3307 659.197 60.6874 660.351 60.2438C661.526 59.778 662.913 59.5451 664.51 59.5451C665.707 59.5451 666.916 59.6782 668.136 59.9444C669.356 60.2106 670.365 60.5876 671.164 61.0756L669.567 64.2364C668.724 63.7263 667.87 63.3825 667.005 63.205C666.162 63.0054 665.319 62.9056 664.476 62.9056C663.212 62.9056 662.269 63.0941 661.648 63.4712C661.049 63.8483 660.75 64.3252 660.75 64.9019C660.75 65.4342 660.95 65.8335 661.349 66.0997C661.748 66.3658 662.269 66.5766 662.913 66.7318C663.556 66.8871 664.266 67.0202 665.042 67.1311C665.841 67.2198 666.628 67.364 667.404 67.5636C668.181 67.7632 668.89 68.0405 669.534 68.3954C670.199 68.7281 670.731 69.205 671.131 69.8261C671.53 70.4472 671.73 71.2568 671.73 72.2549C671.73 73.364 671.397 74.3289 670.731 75.1496C670.088 75.9703 669.168 76.6135 667.97 77.0793C666.772 77.523 665.341 77.7448 663.678 77.7448ZM675.311 77.5119V59.7447H679.47V77.5119H675.311ZM677.407 56.8168C676.631 56.8168 675.988 56.5728 675.478 56.0849C674.99 55.5969 674.746 55.0091 674.746 54.3214C674.746 53.6117 674.99 53.0238 675.478 52.558C675.988 52.0701 676.631 51.8261 677.407 51.8261C678.184 51.8261 678.816 52.059 679.304 52.5248C679.814 52.9684 680.069 53.534 680.069 54.2216C680.069 54.9536 679.825 55.5747 679.337 56.0849C678.849 56.5728 678.206 56.8168 677.407 56.8168ZM695.01 59.5451C696.43 59.5451 697.694 59.8224 698.803 60.3769C699.934 60.9314 700.822 61.7854 701.465 62.9388C702.108 64.0701 702.43 65.534 702.43 67.3307V77.5119H698.271V67.8631C698.271 66.2882 697.894 65.1126 697.14 64.3363C696.408 63.5599 695.376 63.1717 694.045 63.1717C693.069 63.1717 692.204 63.3714 691.45 63.7706C690.696 64.1699 690.108 64.7688 689.687 65.5673C689.288 66.3436 689.088 67.3307 689.088 68.5285V77.5119H684.929V59.7447H688.888V64.5359L688.19 63.0719C688.811 61.9407 689.709 61.0756 690.885 60.4767C692.082 59.8557 693.458 59.5451 695.01 59.5451ZM715.79 84.1995C714.149 84.1995 712.54 83.9777 710.966 83.5341C709.413 83.1126 708.138 82.4915 707.139 81.6708L709.003 78.5433C709.779 79.1866 710.755 79.6967 711.931 80.0738C713.128 80.4731 714.337 80.6727 715.557 80.6727C717.509 80.6727 718.94 80.218 719.849 79.3085C720.759 78.4213 721.213 77.0793 721.213 75.2827V72.1218L721.546 68.096L721.413 64.0701V59.7447H725.372V74.8169C725.372 78.0331 724.552 80.3954 722.91 81.9037C721.269 83.4342 718.895 84.1995 715.79 84.1995ZM715.258 76.7133C713.572 76.7133 712.041 76.3585 710.666 75.6487C709.313 74.9167 708.237 73.9074 707.439 72.6209C706.662 71.3344 706.274 69.8261 706.274 68.096C706.274 66.388 706.662 64.8908 707.439 63.6043C708.237 62.3178 709.313 61.3196 710.666 60.6098C712.041 59.9 713.572 59.5451 715.258 59.5451C716.766 59.5451 718.119 59.8446 719.317 60.4435C720.515 61.0423 721.468 61.974 722.178 63.2383C722.91 64.5026 723.276 66.1218 723.276 68.096C723.276 70.0701 722.91 71.7004 722.178 72.9869C721.468 74.2512 720.515 75.1939 719.317 75.815C718.119 76.4139 716.766 76.7133 715.258 76.7133ZM715.89 73.1865C716.932 73.1865 717.864 72.9758 718.685 72.5544C719.505 72.1108 720.138 71.5119 720.581 70.7577C721.047 69.9814 721.28 69.0941 721.28 68.096C721.28 67.0978 721.047 66.2217 720.581 65.4675C720.138 64.6912 719.505 64.1033 718.685 63.7041C717.864 63.2826 716.932 63.0719 715.89 63.0719C714.847 63.0719 713.905 63.2826 713.062 63.7041C712.241 64.1033 711.598 64.6912 711.132 65.4675C710.688 66.2217 710.467 67.0978 710.467 68.096C710.467 69.0941 710.688 69.9814 711.132 70.7577C711.598 71.5119 712.241 72.1108 713.062 72.5544C713.905 72.9758 714.847 73.1865 715.89 73.1865ZM750.982 77.5119V73.9185L750.749 73.1533V66.8649C750.749 65.6449 750.383 64.7022 749.651 64.0368C748.919 63.3492 747.81 63.0054 746.324 63.0054C745.325 63.0054 744.338 63.1606 743.362 63.4712C742.409 63.7817 741.599 64.2143 740.934 64.7688L739.303 61.7411C740.257 61.0091 741.388 60.4656 742.697 60.1107C744.028 59.7337 745.403 59.5451 746.823 59.5451C749.396 59.5451 751.381 60.1662 752.778 61.4083C754.198 62.6283 754.908 64.5248 754.908 67.0978V77.5119H750.982ZM745.392 77.7448C744.061 77.7448 742.897 77.523 741.898 77.0793C740.9 76.6135 740.124 75.9814 739.569 75.1828C739.037 74.3621 738.771 73.4416 738.771 72.4213C738.771 71.4231 739.004 70.5248 739.47 69.7263C739.958 68.9278 740.745 68.2956 741.832 67.8298C742.919 67.364 744.361 67.1311 746.157 67.1311H751.314V69.8926H746.457C745.037 69.8926 744.083 70.1255 743.595 70.5913C743.107 71.035 742.863 71.5895 742.863 72.2549C742.863 73.0091 743.163 73.608 743.762 74.0516C744.361 74.4952 745.192 74.717 746.257 74.717C747.277 74.717 748.187 74.4841 748.985 74.0183C749.806 73.5525 750.394 72.8649 750.749 71.9555L751.447 74.4509C751.048 75.4934 750.327 76.303 749.285 76.8797C748.264 77.4564 746.967 77.7448 745.392 77.7448ZM770.094 77.7448C768.585 77.7448 767.243 77.4121 766.068 76.7466C764.892 76.0812 763.961 75.083 763.273 73.7522C762.608 72.3991 762.275 70.6912 762.275 68.6283C762.275 66.5433 762.619 64.8353 763.306 63.5045C764.016 62.1736 764.959 61.1865 766.134 60.5433C767.332 59.8778 768.652 59.5451 770.094 59.5451C771.846 59.5451 773.388 59.9222 774.718 60.6764C776.072 61.4305 777.136 62.4841 777.913 63.8372C778.711 65.1902 779.11 66.7873 779.11 68.6283C779.11 70.4693 778.711 72.0664 777.913 73.4194C777.136 74.7725 776.072 75.8372 774.718 76.6135C773.388 77.3677 771.846 77.7448 770.094 77.7448ZM760.245 77.5119V52.8242H764.404V63.8704L764.072 68.595L764.205 73.3196V77.5119H760.245ZM769.628 74.1847C770.626 74.1847 771.513 73.9629 772.29 73.5193C773.088 73.0756 773.72 72.4324 774.186 71.5895C774.652 70.7466 774.885 69.7595 774.885 68.6283C774.885 67.4749 774.652 66.4878 774.186 65.6671C773.72 64.8242 773.088 64.181 772.29 63.7374C771.513 63.2937 770.626 63.0719 769.628 63.0719C768.63 63.0719 767.731 63.2937 766.933 63.7374C766.134 64.181 765.502 64.8242 765.036 65.6671C764.571 66.4878 764.338 67.4749 764.338 68.6283C764.338 69.7595 764.571 70.7466 765.036 71.5895C765.502 72.4324 766.134 73.0756 766.933 73.5193C767.731 73.9629 768.63 74.1847 769.628 74.1847ZM791.04 77.7448C789.221 77.7448 787.602 77.3566 786.182 76.5803C784.763 75.7817 783.642 74.6949 782.822 73.3196C782.001 71.9444 781.591 70.3806 781.591 68.6283C781.591 66.8538 782.001 65.29 782.822 63.937C783.642 62.5618 784.763 61.486 786.182 60.7096C787.602 59.9333 789.221 59.5451 791.04 59.5451C792.881 59.5451 794.511 59.9333 795.931 60.7096C797.373 61.486 798.493 62.5507 799.291 63.9037C800.112 65.2568 800.522 66.8316 800.522 68.6283C800.522 70.3806 800.112 71.9444 799.291 73.3196C798.493 74.6949 797.373 75.7817 795.931 76.5803C794.511 77.3566 792.881 77.7448 791.04 77.7448ZM791.04 74.1847C792.06 74.1847 792.97 73.9629 793.768 73.5193C794.567 73.0756 795.188 72.4324 795.631 71.5895C796.097 70.7466 796.33 69.7595 796.33 68.6283C796.33 67.4749 796.097 66.4878 795.631 65.6671C795.188 64.8242 794.567 64.181 793.768 63.7374C792.97 63.2937 792.071 63.0719 791.073 63.0719C790.053 63.0719 789.143 63.2937 788.345 63.7374C787.568 64.181 786.947 64.8242 786.482 65.6671C786.016 66.4878 785.783 67.4749 785.783 68.6283C785.783 69.7595 786.016 70.7466 786.482 71.5895C786.947 72.4324 787.568 73.0756 788.345 73.5193C789.143 73.9629 790.042 74.1847 791.04 74.1847ZM812.019 77.7448C810.51 77.7448 809.18 77.4675 808.026 76.913C806.873 76.3363 805.974 75.4712 805.331 74.3178C804.688 73.1422 804.366 71.6671 804.366 69.8926V59.7447H808.525V69.327C808.525 70.9241 808.88 72.1218 809.59 72.9204C810.322 73.6967 811.353 74.0849 812.684 74.0849C813.66 74.0849 814.503 73.8852 815.213 73.486C815.945 73.0867 816.51 72.4878 816.91 71.6893C817.331 70.8908 817.542 69.9037 817.542 68.7281V59.7447H821.701V77.5119H817.741V72.7207L818.44 74.1847C817.841 75.3381 816.965 76.2254 815.812 76.8464C814.658 77.4453 813.394 77.7448 812.019 77.7448ZM833.834 77.7448C831.882 77.7448 830.374 77.2457 829.309 76.2475C828.244 75.2272 827.712 73.73 827.712 71.7559V55.8187H831.871V71.656C831.871 72.4989 832.082 73.1533 832.503 73.6191C832.947 74.0849 833.557 74.3178 834.333 74.3178C835.265 74.3178 836.041 74.0738 836.662 73.5858L837.826 76.547C837.338 76.9463 836.74 77.2457 836.03 77.4453C835.32 77.645 834.588 77.7448 833.834 77.7448ZM824.784 63.205V59.8778H836.629V63.205H824.784Z" fill="black"/>
<path d="M84.5622 284.325C82.7878 284.325 81.1353 284.037 79.6048 283.46C78.0964 282.861 76.7767 282.03 75.6454 280.965C74.5364 279.878 73.6713 278.603 73.0502 277.139C72.4291 275.675 72.1186 274.078 72.1186 272.347C72.1186 270.617 72.4291 269.02 73.0502 267.556C73.6713 266.092 74.5474 264.828 75.6787 263.763C76.8099 262.676 78.1297 261.845 79.638 261.268C81.1463 260.669 82.7988 260.37 84.5955 260.37C86.5031 260.37 88.2443 260.702 89.8192 261.368C91.394 262.011 92.7249 262.976 93.8118 264.262L91.017 266.891C90.1741 265.981 89.2314 265.305 88.1889 264.861C87.1464 264.395 86.0151 264.163 84.7951 264.163C83.5752 264.163 82.455 264.362 81.4347 264.761C80.4365 265.161 79.5604 265.726 78.8062 266.458C78.0743 267.19 77.4975 268.055 77.0761 269.054C76.6768 270.052 76.4772 271.15 76.4772 272.347C76.4772 273.545 76.6768 274.643 77.0761 275.641C77.4975 276.639 78.0743 277.505 78.8062 278.237C79.5604 278.969 80.4365 279.534 81.4347 279.933C82.455 280.333 83.5752 280.532 84.7951 280.532C86.0151 280.532 87.1464 280.31 88.1889 279.867C89.2314 279.401 90.1741 278.702 91.017 277.771L93.8118 280.432C92.7249 281.697 91.394 282.662 89.8192 283.327C88.2443 283.993 86.492 284.325 84.5622 284.325ZM97.557 283.993V266.225H101.516V271.116L101.05 269.686C101.583 268.488 102.415 267.578 103.546 266.957C104.699 266.336 106.13 266.026 107.838 266.026V269.985C107.66 269.941 107.494 269.919 107.339 269.919C107.184 269.896 107.028 269.885 106.873 269.885C105.298 269.885 104.045 270.351 103.113 271.283C102.182 272.192 101.716 273.556 101.716 275.375V283.993H97.557ZM119.189 284.225C117.37 284.225 115.751 283.837 114.331 283.061C112.912 282.262 111.791 281.176 110.971 279.8C110.15 278.425 109.74 276.861 109.74 275.109C109.74 273.334 110.15 271.771 110.971 270.418C111.791 269.042 112.912 267.967 114.331 267.19C115.751 266.414 117.37 266.026 119.189 266.026C121.03 266.026 122.66 266.414 124.08 267.19C125.522 267.967 126.642 269.031 127.44 270.384C128.261 271.737 128.671 273.312 128.671 275.109C128.671 276.861 128.261 278.425 127.44 279.8C126.642 281.176 125.522 282.262 124.08 283.061C122.66 283.837 121.03 284.225 119.189 284.225ZM119.189 280.665C120.209 280.665 121.119 280.444 121.917 280C122.716 279.556 123.337 278.913 123.78 278.07C124.246 277.227 124.479 276.24 124.479 275.109C124.479 273.956 124.246 272.969 123.78 272.148C123.337 271.305 122.716 270.662 121.917 270.218C121.119 269.774 120.22 269.553 119.222 269.553C118.202 269.553 117.292 269.774 116.494 270.218C115.717 270.662 115.096 271.305 114.631 272.148C114.165 272.969 113.932 273.956 113.932 275.109C113.932 276.24 114.165 277.227 114.631 278.07C115.096 278.913 115.717 279.556 116.494 280C117.292 280.444 118.191 280.665 119.189 280.665ZM138.138 284.225C136.652 284.225 135.221 284.037 133.846 283.66C132.493 283.261 131.417 282.784 130.619 282.229L132.216 279.068C133.014 279.578 133.968 280 135.077 280.333C136.186 280.665 137.295 280.832 138.404 280.832C139.713 280.832 140.656 280.654 141.232 280.299C141.831 279.944 142.131 279.468 142.131 278.869C142.131 278.381 141.931 278.015 141.532 277.771C141.133 277.505 140.611 277.305 139.968 277.172C139.325 277.039 138.604 276.917 137.805 276.806C137.029 276.695 136.242 276.551 135.443 276.373C134.667 276.174 133.957 275.896 133.314 275.542C132.67 275.164 132.149 274.665 131.75 274.044C131.351 273.423 131.151 272.603 131.151 271.582C131.151 270.451 131.473 269.475 132.116 268.654C132.759 267.811 133.658 267.168 134.811 266.725C135.987 266.259 137.373 266.026 138.97 266.026C140.168 266.026 141.377 266.159 142.597 266.425C143.816 266.691 144.826 267.068 145.624 267.556L144.027 270.717C143.184 270.207 142.33 269.863 141.465 269.686C140.622 269.486 139.78 269.386 138.937 269.386C137.672 269.386 136.73 269.575 136.109 269.952C135.51 270.329 135.21 270.806 135.21 271.383C135.21 271.915 135.41 272.314 135.809 272.58C136.208 272.847 136.73 273.057 137.373 273.213C138.016 273.368 138.726 273.501 139.502 273.612C140.301 273.7 141.088 273.845 141.865 274.044C142.641 274.244 143.351 274.521 143.994 274.876C144.659 275.209 145.192 275.686 145.591 276.307C145.99 276.928 146.19 277.737 146.19 278.736C146.19 279.845 145.857 280.81 145.192 281.63C144.548 282.451 143.628 283.094 142.43 283.56C141.232 284.004 139.802 284.225 138.138 284.225ZM155.261 284.225C153.775 284.225 152.345 284.037 150.969 283.66C149.616 283.261 148.54 282.784 147.742 282.229L149.339 279.068C150.138 279.578 151.091 280 152.2 280.333C153.309 280.665 154.418 280.832 155.528 280.832C156.836 280.832 157.779 280.654 158.356 280.299C158.955 279.944 159.254 279.468 159.254 278.869C159.254 278.381 159.054 278.015 158.655 277.771C158.256 277.505 157.735 277.305 157.091 277.172C156.448 277.039 155.727 276.917 154.929 276.806C154.152 276.695 153.365 276.551 152.566 276.373C151.79 276.174 151.08 275.896 150.437 275.542C149.794 275.164 149.272 274.665 148.873 274.044C148.474 273.423 148.274 272.603 148.274 271.582C148.274 270.451 148.596 269.475 149.239 268.654C149.882 267.811 150.781 267.168 151.934 266.725C153.11 266.259 154.496 266.026 156.093 266.026C157.291 266.026 158.5 266.159 159.72 266.425C160.94 266.691 161.949 267.068 162.748 267.556L161.15 270.717C160.308 270.207 159.454 269.863 158.589 269.686C157.746 269.486 156.903 269.386 156.06 269.386C154.796 269.386 153.853 269.575 153.232 269.952C152.633 270.329 152.333 270.806 152.333 271.383C152.333 271.915 152.533 272.314 152.932 272.58C153.332 272.847 153.853 273.057 154.496 273.213C155.139 273.368 155.849 273.501 156.626 273.612C157.424 273.7 158.211 273.845 158.988 274.044C159.764 274.244 160.474 274.521 161.117 274.876C161.783 275.209 162.315 275.686 162.714 276.307C163.114 276.928 163.313 277.737 163.313 278.736C163.313 279.845 162.98 280.81 162.315 281.63C161.672 282.451 160.751 283.094 159.553 283.56C158.356 284.004 156.925 284.225 155.261 284.225ZM165.996 276.473V273.013H175.146V276.473H165.996ZM189.545 284.225C188.037 284.225 186.695 283.893 185.519 283.227C184.344 282.562 183.412 281.564 182.724 280.233C182.059 278.88 181.726 277.172 181.726 275.109C181.726 273.024 182.07 271.316 182.758 269.985C183.467 268.654 184.41 267.667 185.586 267.024C186.784 266.359 188.103 266.026 189.545 266.026C191.297 266.026 192.839 266.403 194.17 267.157C195.523 267.911 196.588 268.965 197.364 270.318C198.162 271.671 198.562 273.268 198.562 275.109C198.562 276.95 198.162 278.547 197.364 279.9C196.588 281.253 195.523 282.318 194.17 283.094C192.839 283.848 191.297 284.225 189.545 284.225ZM179.697 283.993V259.305H183.856V270.351L183.523 275.076L183.656 279.8V283.993H179.697ZM189.079 280.665C190.077 280.665 190.965 280.444 191.741 280C192.54 279.556 193.172 278.913 193.637 278.07C194.103 277.227 194.336 276.24 194.336 275.109C194.336 273.956 194.103 272.969 193.637 272.148C193.172 271.305 192.54 270.662 191.741 270.218C190.965 269.774 190.077 269.553 189.079 269.553C188.081 269.553 187.183 269.774 186.384 270.218C185.586 270.662 184.954 271.305 184.488 272.148C184.022 272.969 183.789 273.956 183.789 275.109C183.789 276.24 184.022 277.227 184.488 278.07C184.954 278.913 185.586 279.556 186.384 280C187.183 280.444 188.081 280.665 189.079 280.665ZM210.491 284.225C208.672 284.225 207.053 283.837 205.634 283.061C204.214 282.262 203.094 281.176 202.273 279.8C201.452 278.425 201.042 276.861 201.042 275.109C201.042 273.334 201.452 271.771 202.273 270.418C203.094 269.042 204.214 267.967 205.634 267.19C207.053 266.414 208.672 266.026 210.491 266.026C212.332 266.026 213.963 266.414 215.382 267.19C216.824 267.967 217.944 269.031 218.743 270.384C219.563 271.737 219.974 273.312 219.974 275.109C219.974 276.861 219.563 278.425 218.743 279.8C217.944 281.176 216.824 282.262 215.382 283.061C213.963 283.837 212.332 284.225 210.491 284.225ZM210.491 280.665C211.512 280.665 212.421 280.444 213.219 280C214.018 279.556 214.639 278.913 215.083 278.07C215.549 277.227 215.781 276.24 215.781 275.109C215.781 273.956 215.549 272.969 215.083 272.148C214.639 271.305 214.018 270.662 213.219 270.218C212.421 269.774 211.523 269.553 210.524 269.553C209.504 269.553 208.595 269.774 207.796 270.218C207.02 270.662 206.399 271.305 205.933 272.148C205.467 272.969 205.234 273.956 205.234 275.109C205.234 276.24 205.467 277.227 205.933 278.07C206.399 278.913 207.02 279.556 207.796 280C208.595 280.444 209.493 280.665 210.491 280.665ZM223.951 283.993V266.225H227.91V271.116L227.444 269.686C227.977 268.488 228.808 267.578 229.94 266.957C231.093 266.336 232.524 266.026 234.232 266.026V269.985C234.054 269.941 233.888 269.919 233.733 269.919C233.577 269.896 233.422 269.885 233.267 269.885C231.692 269.885 230.439 270.351 229.507 271.283C228.575 272.192 228.11 273.556 228.11 275.375V283.993H223.951ZM245.117 284.225C243.409 284.225 241.867 283.848 240.492 283.094C239.139 282.318 238.074 281.253 237.298 279.9C236.522 278.547 236.133 276.95 236.133 275.109C236.133 273.268 236.522 271.671 237.298 270.318C238.074 268.965 239.139 267.911 240.492 267.157C241.867 266.403 243.409 266.026 245.117 266.026C246.603 266.026 247.934 266.359 249.109 267.024C250.285 267.667 251.217 268.654 251.904 269.985C252.592 271.316 252.936 273.024 252.936 275.109C252.936 277.172 252.603 278.88 251.937 280.233C251.272 281.564 250.351 282.562 249.176 283.227C248 283.893 246.647 284.225 245.117 284.225ZM245.616 280.665C246.614 280.665 247.501 280.444 248.278 280C249.076 279.556 249.708 278.913 250.174 278.07C250.662 277.227 250.906 276.24 250.906 275.109C250.906 273.956 250.662 272.969 250.174 272.148C249.708 271.305 249.076 270.662 248.278 270.218C247.501 269.774 246.614 269.553 245.616 269.553C244.618 269.553 243.719 269.774 242.921 270.218C242.144 270.662 241.512 271.305 241.024 272.148C240.558 272.969 240.326 273.956 240.326 275.109C240.326 276.24 240.558 277.227 241.024 278.07C241.512 278.913 242.144 279.556 242.921 280C243.719 280.444 244.618 280.665 245.616 280.665ZM251.006 283.993V279.8L251.172 275.076L250.839 270.351V259.305H254.965V283.993H251.006ZM268.79 284.225C266.816 284.225 265.086 283.837 263.6 283.061C262.136 282.262 260.994 281.176 260.173 279.8C259.374 278.425 258.975 276.861 258.975 275.109C258.975 273.334 259.363 271.771 260.14 270.418C260.938 269.042 262.025 267.967 263.4 267.19C264.798 266.414 266.384 266.026 268.158 266.026C269.888 266.026 271.43 266.403 272.783 267.157C274.136 267.911 275.201 268.976 275.977 270.351C276.753 271.726 277.142 273.346 277.142 275.209C277.142 275.386 277.13 275.586 277.108 275.808C277.108 276.03 277.097 276.24 277.075 276.44H262.269V273.678H274.879L273.249 274.543C273.271 273.523 273.06 272.625 272.617 271.848C272.173 271.072 271.563 270.462 270.787 270.018C270.033 269.575 269.156 269.353 268.158 269.353C267.138 269.353 266.24 269.575 265.463 270.018C264.709 270.462 264.11 271.083 263.667 271.882C263.245 272.658 263.034 273.578 263.034 274.643V275.309C263.034 276.373 263.278 277.316 263.766 278.137C264.254 278.957 264.942 279.59 265.829 280.033C266.716 280.477 267.737 280.699 268.89 280.699C269.888 280.699 270.787 280.543 271.585 280.233C272.384 279.922 273.094 279.434 273.715 278.769L275.944 281.331C275.145 282.262 274.136 282.983 272.916 283.493C271.718 283.981 270.343 284.225 268.79 284.225ZM281.137 283.993V266.225H285.096V271.116L284.63 269.686C285.162 268.488 285.994 267.578 287.125 266.957C288.279 266.336 289.71 266.026 291.417 266.026V269.985C291.24 269.941 291.074 269.919 290.918 269.919C290.763 269.896 290.608 269.885 290.453 269.885C288.878 269.885 287.625 270.351 286.693 271.283C285.761 272.192 285.295 273.556 285.295 275.375V283.993H281.137ZM108.364 325.225C106.922 325.225 105.602 324.893 104.405 324.227C103.229 323.562 102.286 322.564 101.576 321.233C100.889 319.88 100.545 318.172 100.545 316.109C100.545 314.024 100.878 312.316 101.543 310.985C102.231 309.654 103.162 308.667 104.338 308.024C105.514 307.359 106.856 307.026 108.364 307.026C110.116 307.026 111.658 307.403 112.989 308.157C114.342 308.911 115.406 309.965 116.183 311.318C116.981 312.671 117.381 314.268 117.381 316.109C117.381 317.95 116.981 319.558 116.183 320.933C115.406 322.286 114.342 323.34 112.989 324.094C111.658 324.848 110.116 325.225 108.364 325.225ZM98.5155 331.447V307.225H102.475V311.418L102.342 316.142L102.674 320.867V331.447H98.5155ZM107.898 321.665C108.896 321.665 109.784 321.444 110.56 321C111.358 320.556 111.991 319.913 112.456 319.07C112.922 318.227 113.155 317.24 113.155 316.109C113.155 314.956 112.922 313.969 112.456 313.148C111.991 312.305 111.358 311.662 110.56 311.218C109.784 310.774 108.896 310.553 107.898 310.553C106.9 310.553 106.002 310.774 105.203 311.218C104.405 311.662 103.772 312.305 103.307 313.148C102.841 313.969 102.608 314.956 102.608 316.109C102.608 317.24 102.841 318.227 103.307 319.07C103.772 319.913 104.405 320.556 105.203 321C106.002 321.444 106.9 321.665 107.898 321.665ZM132.044 324.993V321.399L131.811 320.634V314.346C131.811 313.126 131.445 312.183 130.713 311.517C129.981 310.83 128.872 310.486 127.386 310.486C126.388 310.486 125.401 310.641 124.425 310.952C123.471 311.262 122.661 311.695 121.996 312.249L120.365 309.222C121.319 308.49 122.45 307.946 123.759 307.591C125.09 307.214 126.465 307.026 127.885 307.026C130.458 307.026 132.443 307.647 133.84 308.889C135.26 310.109 135.97 312.005 135.97 314.578V324.993H132.044ZM126.454 325.225C125.123 325.225 123.959 325.004 122.961 324.56C121.962 324.094 121.186 323.462 120.632 322.664C120.099 321.843 119.833 320.922 119.833 319.902C119.833 318.904 120.066 318.005 120.532 317.207C121.02 316.408 121.807 315.776 122.894 315.31C123.981 314.845 125.423 314.612 127.219 314.612H132.377V317.373H127.519C126.099 317.373 125.145 317.606 124.657 318.072C124.169 318.516 123.925 319.07 123.925 319.736C123.925 320.49 124.225 321.089 124.824 321.532C125.423 321.976 126.254 322.198 127.319 322.198C128.34 322.198 129.249 321.965 130.047 321.499C130.868 321.033 131.456 320.346 131.811 319.436L132.51 321.932C132.11 322.974 131.389 323.784 130.347 324.36C129.327 324.937 128.029 325.225 126.454 325.225ZM142.446 331.68C141.581 331.68 140.716 331.536 139.851 331.248C138.986 330.959 138.265 330.56 137.689 330.05L139.352 326.989C139.774 327.366 140.25 327.665 140.783 327.887C141.315 328.109 141.859 328.22 142.413 328.22C143.167 328.22 143.777 328.031 144.243 327.654C144.709 327.277 145.141 326.645 145.541 325.758L146.572 323.429L146.905 322.93L153.626 307.225H157.618L149.3 326.423C148.746 327.754 148.125 328.808 147.437 329.584C146.772 330.36 146.018 330.904 145.175 331.214C144.354 331.525 143.445 331.68 142.446 331.68ZM146.106 325.625L138.088 307.225H142.413L148.934 322.564L146.106 325.625ZM182.643 307.026C184.062 307.026 185.316 307.303 186.403 307.858C187.512 308.412 188.377 309.266 188.998 310.42C189.619 311.551 189.929 313.015 189.929 314.811V324.993H185.77V315.344C185.77 313.769 185.427 312.593 184.739 311.817C184.051 311.041 183.064 310.652 181.778 310.652C180.868 310.652 180.059 310.852 179.349 311.251C178.661 311.651 178.118 312.238 177.719 313.015C177.342 313.791 177.153 314.778 177.153 315.976V324.993H172.994V315.344C172.994 313.769 172.65 312.593 171.963 311.817C171.275 311.041 170.288 310.652 169.001 310.652C168.092 310.652 167.282 310.852 166.573 311.251C165.885 311.651 165.342 312.238 164.942 313.015C164.565 313.791 164.377 314.778 164.377 315.976V324.993H160.218V307.225H164.177V311.95L163.478 310.553C164.077 309.399 164.942 308.523 166.074 307.924C167.227 307.325 168.536 307.026 170 307.026C171.663 307.026 173.105 307.436 174.325 308.257C175.567 309.078 176.388 310.32 176.787 311.983L175.157 311.418C175.733 310.087 176.687 309.022 178.018 308.224C179.349 307.425 180.891 307.026 182.643 307.026ZM203.628 325.225C201.654 325.225 199.923 324.837 198.437 324.061C196.973 323.262 195.831 322.176 195.01 320.8C194.212 319.425 193.813 317.861 193.813 316.109C193.813 314.334 194.201 312.771 194.977 311.418C195.776 310.042 196.862 308.967 198.238 308.19C199.635 307.414 201.221 307.026 202.996 307.026C204.726 307.026 206.267 307.403 207.62 308.157C208.973 308.911 210.038 309.976 210.814 311.351C211.591 312.726 211.979 314.346 211.979 316.209C211.979 316.386 211.968 316.586 211.946 316.808C211.946 317.03 211.935 317.24 211.912 317.44H197.106V314.678H209.716L208.086 315.543C208.108 314.523 207.898 313.625 207.454 312.848C207.01 312.072 206.4 311.462 205.624 311.018C204.87 310.575 203.994 310.353 202.996 310.353C201.975 310.353 201.077 310.575 200.301 311.018C199.546 311.462 198.948 312.083 198.504 312.882C198.082 313.658 197.872 314.578 197.872 315.643V316.309C197.872 317.373 198.116 318.316 198.604 319.137C199.092 319.957 199.779 320.59 200.667 321.033C201.554 321.477 202.574 321.699 203.728 321.699C204.726 321.699 205.624 321.543 206.423 321.233C207.221 320.922 207.931 320.434 208.552 319.769L210.781 322.331C209.983 323.262 208.973 323.983 207.753 324.493C206.556 324.981 205.18 325.225 203.628 325.225ZM226.055 307.026C227.475 307.026 228.739 307.303 229.848 307.858C230.979 308.412 231.867 309.266 232.51 310.42C233.153 311.551 233.475 313.015 233.475 314.811V324.993H229.316V315.344C229.316 313.769 228.939 312.593 228.185 311.817C227.453 311.041 226.421 310.652 225.09 310.652C224.114 310.652 223.249 310.852 222.495 311.251C221.741 311.651 221.153 312.249 220.732 313.048C220.332 313.824 220.133 314.811 220.133 316.009V324.993H215.974V307.225H219.933V312.017L219.235 310.553C219.856 309.421 220.754 308.556 221.93 307.957C223.127 307.336 224.503 307.026 226.055 307.026ZM245.438 325.225C243.486 325.225 241.978 324.726 240.913 323.728C239.849 322.708 239.316 321.211 239.316 319.237V303.299H243.475V319.137C243.475 319.98 243.686 320.634 244.108 321.1C244.551 321.566 245.161 321.798 245.937 321.798C246.869 321.798 247.645 321.554 248.266 321.066L249.431 324.028C248.943 324.427 248.344 324.726 247.634 324.926C246.925 325.126 246.193 325.225 245.438 325.225ZM236.388 310.686V307.359H248.233V310.686H236.388ZM258.342 325.225C256.856 325.225 255.425 325.037 254.05 324.66C252.697 324.261 251.621 323.784 250.823 323.229L252.42 320.068C253.218 320.578 254.172 321 255.281 321.333C256.39 321.665 257.499 321.832 258.608 321.832C259.917 321.832 260.86 321.654 261.436 321.299C262.035 320.944 262.335 320.468 262.335 319.869C262.335 319.381 262.135 319.015 261.736 318.771C261.337 318.505 260.815 318.305 260.172 318.172C259.529 318.039 258.808 317.917 258.009 317.806C257.233 317.695 256.446 317.551 255.647 317.373C254.871 317.174 254.161 316.896 253.518 316.542C252.874 316.164 252.353 315.665 251.954 315.044C251.555 314.423 251.355 313.603 251.355 312.582C251.355 311.451 251.677 310.475 252.32 309.654C252.963 308.811 253.862 308.168 255.015 307.725C256.191 307.259 257.577 307.026 259.174 307.026C260.372 307.026 261.581 307.159 262.801 307.425C264.021 307.691 265.03 308.068 265.828 308.556L264.231 311.717C263.388 311.207 262.534 310.863 261.669 310.686C260.826 310.486 259.984 310.386 259.141 310.386C257.876 310.386 256.934 310.575 256.313 310.952C255.714 311.329 255.414 311.806 255.414 312.383C255.414 312.915 255.614 313.314 256.013 313.58C256.412 313.847 256.934 314.057 257.577 314.213C258.22 314.368 258.93 314.501 259.706 314.612C260.505 314.7 261.292 314.845 262.069 315.044C262.845 315.244 263.555 315.521 264.198 315.876C264.863 316.209 265.396 316.686 265.795 317.307C266.194 317.928 266.394 318.737 266.394 319.736C266.394 320.845 266.061 321.81 265.396 322.63C264.752 323.451 263.832 324.094 262.634 324.56C261.436 325.004 260.006 325.225 258.342 325.225Z" fill="black"/>
<rect x="130.631" y="134.563" width="97.8581" height="97.8581" rx="48.9291" fill="black"/>
<path d="M185.084 160.637V205.284H176.98V170.086L166.246 173.633V167.089L184.166 160.637H185.084Z" fill="white"/>
<path d="M456.754 283.993V264.362H449.035V260.702H468.799V264.362H461.08V283.993H456.754ZM471.223 283.993V266.225H475.183V271.116L474.717 269.686C475.249 268.488 476.081 267.578 477.212 266.957C478.366 266.336 479.796 266.026 481.504 266.026V269.985C481.327 269.941 481.16 269.919 481.005 269.919C480.85 269.896 480.695 269.885 480.539 269.885C478.964 269.885 477.711 270.351 476.78 271.283C475.848 272.192 475.382 273.556 475.382 275.375V283.993H471.223ZM494.712 283.993V280.399L494.479 279.634V273.346C494.479 272.126 494.113 271.183 493.381 270.517C492.649 269.83 491.54 269.486 490.053 269.486C489.055 269.486 488.068 269.641 487.092 269.952C486.139 270.262 485.329 270.695 484.663 271.249L483.033 268.222C483.987 267.49 485.118 266.946 486.427 266.591C487.758 266.214 489.133 266.026 490.553 266.026C493.126 266.026 495.111 266.647 496.508 267.889C497.928 269.109 498.638 271.005 498.638 273.578V283.993H494.712ZM489.122 284.225C487.791 284.225 486.627 284.004 485.628 283.56C484.63 283.094 483.854 282.462 483.299 281.664C482.767 280.843 482.501 279.922 482.501 278.902C482.501 277.904 482.734 277.005 483.2 276.207C483.687 275.408 484.475 274.776 485.562 274.31C486.649 273.845 488.09 273.612 489.887 273.612H495.044V276.373H490.187C488.767 276.373 487.813 276.606 487.325 277.072C486.837 277.516 486.593 278.07 486.593 278.736C486.593 279.49 486.893 280.089 487.492 280.532C488.09 280.976 488.922 281.198 489.987 281.198C491.007 281.198 491.917 280.965 492.715 280.499C493.536 280.033 494.124 279.346 494.479 278.436L495.177 280.932C494.778 281.974 494.057 282.784 493.015 283.36C491.994 283.937 490.697 284.225 489.122 284.225ZM512.159 284.225C510.296 284.225 508.632 283.837 507.168 283.061C505.727 282.262 504.595 281.176 503.775 279.8C502.954 278.425 502.544 276.861 502.544 275.109C502.544 273.334 502.954 271.771 503.775 270.418C504.595 269.042 505.727 267.967 507.168 267.19C508.632 266.414 510.296 266.026 512.159 266.026C513.889 266.026 515.409 266.381 516.717 267.09C518.048 267.778 519.058 268.798 519.745 270.151L516.551 272.015C516.019 271.172 515.364 270.551 514.588 270.151C513.834 269.752 513.013 269.553 512.126 269.553C511.106 269.553 510.185 269.774 509.364 270.218C508.544 270.662 507.9 271.305 507.435 272.148C506.969 272.969 506.736 273.956 506.736 275.109C506.736 276.262 506.969 277.261 507.435 278.103C507.9 278.924 508.544 279.556 509.364 280C510.185 280.444 511.106 280.665 512.126 280.665C513.013 280.665 513.834 280.466 514.588 280.066C515.364 279.667 516.019 279.046 516.551 278.203L519.745 280.066C519.058 281.397 518.048 282.429 516.717 283.161C515.409 283.871 513.889 284.225 512.159 284.225ZM526.572 280.033L526.671 274.81L535.954 266.225H540.945L533.06 274.144L530.864 275.974L526.572 280.033ZM523.178 283.993V259.305H527.337V283.993H523.178ZM536.586 283.993L530.098 275.974L532.727 272.647L541.644 283.993H536.586ZM544.33 283.993V266.225H548.489V283.993H544.33ZM546.426 263.298C545.65 263.298 545.007 263.054 544.497 262.566C544.009 262.078 543.765 261.49 543.765 260.802C543.765 260.092 544.009 259.505 544.497 259.039C545.007 258.551 545.65 258.307 546.426 258.307C547.203 258.307 547.835 258.54 548.323 259.005C548.833 259.449 549.088 260.015 549.088 260.702C549.088 261.434 548.844 262.055 548.356 262.566C547.868 263.054 547.225 263.298 546.426 263.298ZM564.029 266.026C565.449 266.026 566.713 266.303 567.822 266.858C568.953 267.412 569.841 268.266 570.484 269.42C571.127 270.551 571.449 272.015 571.449 273.811V283.993H567.29V274.344C567.29 272.769 566.913 271.593 566.159 270.817C565.427 270.041 564.395 269.652 563.064 269.652C562.088 269.652 561.223 269.852 560.469 270.251C559.715 270.651 559.127 271.249 558.706 272.048C558.306 272.824 558.107 273.811 558.107 275.009V283.993H553.948V266.225H557.907V271.017L557.208 269.553C557.829 268.421 558.728 267.556 559.903 266.957C561.101 266.336 562.476 266.026 564.029 266.026ZM584.809 290.68C583.167 290.68 581.559 290.458 579.984 290.015C578.432 289.593 577.156 288.972 576.158 288.152L578.021 285.024C578.798 285.667 579.774 286.177 580.949 286.554C582.147 286.954 583.356 287.153 584.576 287.153C586.528 287.153 587.959 286.699 588.868 285.789C589.777 284.902 590.232 283.56 590.232 281.763V278.603L590.565 274.577L590.432 270.551V266.225H594.391V281.298C594.391 284.514 593.57 286.876 591.929 288.384C590.288 289.915 587.914 290.68 584.809 290.68ZM584.277 283.194C582.591 283.194 581.06 282.839 579.685 282.129C578.332 281.397 577.256 280.388 576.458 279.102C575.681 277.815 575.293 276.307 575.293 274.577C575.293 272.869 575.681 271.371 576.458 270.085C577.256 268.798 578.332 267.8 579.685 267.09C581.06 266.381 582.591 266.026 584.277 266.026C585.785 266.026 587.138 266.325 588.336 266.924C589.533 267.523 590.487 268.455 591.197 269.719C591.929 270.983 592.295 272.603 592.295 274.577C592.295 276.551 591.929 278.181 591.197 279.468C590.487 280.732 589.533 281.675 588.336 282.296C587.138 282.895 585.785 283.194 584.277 283.194ZM584.909 279.667C585.951 279.667 586.883 279.457 587.704 279.035C588.524 278.591 589.156 277.993 589.6 277.238C590.066 276.462 590.299 275.575 590.299 274.577C590.299 273.578 590.066 272.702 589.6 271.948C589.156 271.172 588.524 270.584 587.704 270.185C586.883 269.763 585.951 269.553 584.909 269.553C583.866 269.553 582.923 269.763 582.081 270.185C581.26 270.584 580.617 271.172 580.151 271.948C579.707 272.702 579.485 273.578 579.485 274.577C579.485 275.575 579.707 276.462 580.151 277.238C580.617 277.993 581.26 278.591 582.081 279.035C582.923 279.457 583.866 279.667 584.909 279.667ZM617.405 284.225C615.431 284.225 613.701 283.837 612.215 283.061C610.751 282.262 609.609 281.176 608.788 279.8C607.989 278.425 607.59 276.861 607.59 275.109C607.59 273.334 607.978 271.771 608.755 270.418C609.553 269.042 610.64 267.967 612.015 267.19C613.413 266.414 614.999 266.026 616.773 266.026C618.503 266.026 620.045 266.403 621.398 267.157C622.751 267.911 623.816 268.976 624.592 270.351C625.368 271.726 625.757 273.346 625.757 275.209C625.757 275.386 625.745 275.586 625.723 275.808C625.723 276.03 625.712 276.24 625.69 276.44H610.884V273.678H623.494L621.864 274.543C621.886 273.523 621.675 272.625 621.232 271.848C620.788 271.072 620.178 270.462 619.402 270.018C618.647 269.575 617.771 269.353 616.773 269.353C615.753 269.353 614.854 269.575 614.078 270.018C613.324 270.462 612.725 271.083 612.281 271.882C611.86 272.658 611.649 273.578 611.649 274.643V275.309C611.649 276.373 611.893 277.316 612.381 278.137C612.869 278.957 613.557 279.59 614.444 280.033C615.331 280.477 616.352 280.699 617.505 280.699C618.503 280.699 619.402 280.543 620.2 280.233C620.999 279.922 621.708 279.434 622.33 278.769L624.559 281.331C623.76 282.262 622.751 282.983 621.531 283.493C620.333 283.981 618.958 284.225 617.405 284.225ZM652.177 266.026C653.596 266.026 654.85 266.303 655.936 266.858C657.045 267.412 657.911 268.266 658.532 269.42C659.153 270.551 659.463 272.015 659.463 273.811V283.993H655.304V274.344C655.304 272.769 654.96 271.593 654.273 270.817C653.585 270.041 652.598 269.652 651.312 269.652C650.402 269.652 649.593 269.852 648.883 270.251C648.195 270.651 647.652 271.238 647.252 272.015C646.875 272.791 646.687 273.778 646.687 274.976V283.993H642.528V274.344C642.528 272.769 642.184 271.593 641.496 270.817C640.809 270.041 639.822 269.652 638.535 269.652C637.626 269.652 636.816 269.852 636.106 270.251C635.419 270.651 634.875 271.238 634.476 272.015C634.099 272.791 633.91 273.778 633.91 274.976V283.993H629.752V266.225H633.711V270.95L633.012 269.553C633.611 268.399 634.476 267.523 635.607 266.924C636.761 266.325 638.069 266.026 639.533 266.026C641.197 266.026 642.639 266.436 643.859 267.257C645.101 268.078 645.922 269.32 646.321 270.983L644.691 270.418C645.267 269.087 646.221 268.022 647.552 267.224C648.883 266.425 650.424 266.026 652.177 266.026ZM674.626 284.225C673.184 284.225 671.865 283.893 670.667 283.227C669.491 282.562 668.549 281.564 667.839 280.233C667.151 278.88 666.807 277.172 666.807 275.109C666.807 273.024 667.14 271.316 667.806 269.985C668.493 268.654 669.425 267.667 670.6 267.024C671.776 266.359 673.118 266.026 674.626 266.026C676.379 266.026 677.92 266.403 679.251 267.157C680.604 267.911 681.669 268.965 682.445 270.318C683.244 271.671 683.643 273.268 683.643 275.109C683.643 276.95 683.244 278.558 682.445 279.933C681.669 281.286 680.604 282.34 679.251 283.094C677.92 283.848 676.379 284.225 674.626 284.225ZM664.778 290.447V266.225H668.737V270.418L668.604 275.142L668.937 279.867V290.447H664.778ZM674.16 280.665C675.159 280.665 676.046 280.444 676.822 280C677.621 279.556 678.253 278.913 678.719 278.07C679.185 277.227 679.417 276.24 679.417 275.109C679.417 273.956 679.185 272.969 678.719 272.148C678.253 271.305 677.621 270.662 676.822 270.218C676.046 269.774 675.159 269.553 674.16 269.553C673.162 269.553 672.264 269.774 671.465 270.218C670.667 270.662 670.035 271.305 669.569 272.148C669.103 272.969 668.87 273.956 668.87 275.109C668.87 276.24 669.103 277.227 669.569 278.07C670.035 278.913 670.667 279.556 671.465 280C672.264 280.444 673.162 280.665 674.16 280.665ZM687.587 283.993V259.305H691.746V283.993H687.587ZM705.19 284.225C703.371 284.225 701.752 283.837 700.332 283.061C698.913 282.262 697.793 281.176 696.972 279.8C696.151 278.425 695.741 276.861 695.741 275.109C695.741 273.334 696.151 271.771 696.972 270.418C697.793 269.042 698.913 267.967 700.332 267.19C701.752 266.414 703.371 266.026 705.19 266.026C707.031 266.026 708.661 266.414 710.081 267.19C711.523 267.967 712.643 269.031 713.441 270.384C714.262 271.737 714.672 273.312 714.672 275.109C714.672 276.861 714.262 278.425 713.441 279.8C712.643 281.176 711.523 282.262 710.081 283.061C708.661 283.837 707.031 284.225 705.19 284.225ZM705.19 280.665C706.21 280.665 707.12 280.444 707.918 280C708.717 279.556 709.338 278.913 709.782 278.07C710.247 277.227 710.48 276.24 710.48 275.109C710.48 273.956 710.247 272.969 709.782 272.148C709.338 271.305 708.717 270.662 707.918 270.218C707.12 269.774 706.221 269.553 705.223 269.553C704.203 269.553 703.294 269.774 702.495 270.218C701.719 270.662 701.098 271.305 700.632 272.148C700.166 272.969 699.933 273.956 699.933 275.109C699.933 276.24 700.166 277.227 700.632 278.07C701.098 278.913 701.719 279.556 702.495 280C703.294 280.444 704.192 280.665 705.19 280.665ZM719.626 290.68C718.761 290.68 717.896 290.536 717.031 290.248C716.166 289.959 715.445 289.56 714.868 289.05L716.532 285.989C716.953 286.366 717.43 286.665 717.962 286.887C718.495 287.109 719.038 287.22 719.593 287.22C720.347 287.22 720.957 287.031 721.423 286.654C721.889 286.277 722.321 285.645 722.72 284.758L723.752 282.429L724.084 281.93L730.805 266.225H734.798L726.48 285.423C725.926 286.754 725.304 287.808 724.617 288.584C723.951 289.36 723.197 289.904 722.354 290.214C721.534 290.525 720.624 290.68 719.626 290.68ZM723.286 284.625L715.267 266.225H719.593L726.114 281.564L723.286 284.625ZM745.261 284.225C743.287 284.225 741.557 283.837 740.071 283.061C738.607 282.262 737.465 281.176 736.644 279.8C735.845 278.425 735.446 276.861 735.446 275.109C735.446 273.334 735.834 271.771 736.611 270.418C737.409 269.042 738.496 267.967 739.871 267.19C741.269 266.414 742.855 266.026 744.629 266.026C746.359 266.026 747.901 266.403 749.254 267.157C750.607 267.911 751.672 268.976 752.448 270.351C753.224 271.726 753.612 273.346 753.612 275.209C753.612 275.386 753.601 275.586 753.579 275.808C753.579 276.03 753.568 276.24 753.546 276.44H738.74V273.678H751.35L749.72 274.543C749.742 273.523 749.531 272.625 749.087 271.848C748.644 271.072 748.034 270.462 747.258 270.018C746.503 269.575 745.627 269.353 744.629 269.353C743.609 269.353 742.71 269.575 741.934 270.018C741.18 270.462 740.581 271.083 740.137 271.882C739.716 272.658 739.505 273.578 739.505 274.643V275.309C739.505 276.373 739.749 277.316 740.237 278.137C740.725 278.957 741.413 279.59 742.3 280.033C743.187 280.477 744.208 280.699 745.361 280.699C746.359 280.699 747.258 280.543 748.056 280.233C748.855 279.922 749.564 279.434 750.185 278.769L752.415 281.331C751.616 282.262 750.607 282.983 749.387 283.493C748.189 283.981 746.814 284.225 745.261 284.225ZM765.959 284.225C763.984 284.225 762.254 283.837 760.768 283.061C759.304 282.262 758.162 281.176 757.341 279.8C756.543 278.425 756.143 276.861 756.143 275.109C756.143 273.334 756.532 271.771 757.308 270.418C758.106 269.042 759.193 267.967 760.569 267.19C761.966 266.414 763.552 266.026 765.326 266.026C767.057 266.026 768.598 266.403 769.951 267.157C771.304 267.911 772.369 268.976 773.145 270.351C773.922 271.726 774.31 273.346 774.31 275.209C774.31 275.386 774.299 275.586 774.277 275.808C774.277 276.03 774.265 276.24 774.243 276.44H759.437V273.678H772.047L770.417 274.543C770.439 273.523 770.228 272.625 769.785 271.848C769.341 271.072 768.731 270.462 767.955 270.018C767.201 269.575 766.325 269.353 765.326 269.353C764.306 269.353 763.408 269.575 762.631 270.018C761.877 270.462 761.278 271.083 760.835 271.882C760.413 272.658 760.203 273.578 760.203 274.643V275.309C760.203 276.373 760.447 277.316 760.935 278.137C761.423 278.957 762.11 279.59 762.997 280.033C763.885 280.477 764.905 280.699 766.058 280.699C767.057 280.699 767.955 280.543 768.753 280.233C769.552 279.922 770.262 279.434 770.883 278.769L773.112 281.331C772.313 282.262 771.304 282.983 770.084 283.493C768.887 283.981 767.511 284.225 765.959 284.225ZM798.446 283.993V280.399L798.213 279.634V273.346C798.213 272.126 797.847 271.183 797.115 270.517C796.384 269.83 795.274 269.486 793.788 269.486C792.79 269.486 791.803 269.641 790.827 269.952C789.873 270.262 789.064 270.695 788.398 271.249L786.768 268.222C787.722 267.49 788.853 266.946 790.162 266.591C791.493 266.214 792.868 266.026 794.287 266.026C796.86 266.026 798.846 266.647 800.243 267.889C801.663 269.109 802.372 271.005 802.372 273.578V283.993H798.446ZM792.857 284.225C791.526 284.225 790.361 284.004 789.363 283.56C788.365 283.094 787.589 282.462 787.034 281.664C786.502 280.843 786.236 279.922 786.236 278.902C786.236 277.904 786.469 277.005 786.934 276.207C787.422 275.408 788.21 274.776 789.297 274.31C790.384 273.845 791.825 273.612 793.622 273.612H798.779V276.373H793.921C792.502 276.373 791.548 276.606 791.06 277.072C790.572 277.516 790.328 278.07 790.328 278.736C790.328 279.49 790.627 280.089 791.226 280.532C791.825 280.976 792.657 281.198 793.722 281.198C794.742 281.198 795.652 280.965 796.45 280.499C797.271 280.033 797.859 279.346 798.213 278.436L798.912 280.932C798.513 281.974 797.792 282.784 796.75 283.36C795.729 283.937 794.432 284.225 792.857 284.225ZM817.791 266.026C819.211 266.026 820.475 266.303 821.584 266.858C822.716 267.412 823.603 268.266 824.246 269.42C824.889 270.551 825.211 272.015 825.211 273.811V283.993H821.052V274.344C821.052 272.769 820.675 271.593 819.921 270.817C819.189 270.041 818.157 269.652 816.826 269.652C815.85 269.652 814.985 269.852 814.231 270.251C813.477 270.651 812.889 271.249 812.468 272.048C812.069 272.824 811.869 273.811 811.869 275.009V283.993H807.71V266.225H811.669V271.017L810.971 269.553C811.592 268.421 812.49 267.556 813.666 266.957C814.863 266.336 816.239 266.026 817.791 266.026ZM838.039 284.225C836.331 284.225 834.789 283.848 833.414 283.094C832.061 282.318 830.996 281.253 830.22 279.9C829.444 278.547 829.055 276.95 829.055 275.109C829.055 273.268 829.444 271.671 830.22 270.318C830.996 268.965 832.061 267.911 833.414 267.157C834.789 266.403 836.331 266.026 838.039 266.026C839.525 266.026 840.856 266.359 842.031 267.024C843.207 267.667 844.139 268.654 844.826 269.985C845.514 271.316 845.858 273.024 845.858 275.109C845.858 277.172 845.525 278.88 844.859 280.233C844.194 281.564 843.273 282.562 842.098 283.227C840.922 283.893 839.569 284.225 838.039 284.225ZM838.538 280.665C839.536 280.665 840.423 280.444 841.2 280C841.998 279.556 842.63 278.913 843.096 278.07C843.584 277.227 843.828 276.24 843.828 275.109C843.828 273.956 843.584 272.969 843.096 272.148C842.63 271.305 841.998 270.662 841.2 270.218C840.423 269.774 839.536 269.553 838.538 269.553C837.54 269.553 836.641 269.774 835.843 270.218C835.066 270.662 834.434 271.305 833.946 272.148C833.48 272.969 833.248 273.956 833.248 275.109C833.248 276.24 833.48 277.227 833.946 278.07C834.434 278.913 835.066 279.556 835.843 280C836.641 280.444 837.54 280.665 838.538 280.665ZM843.928 283.993V279.8L844.094 275.076L843.761 270.351V259.305H847.887V283.993H843.928ZM522.898 325.225C521.035 325.225 519.371 324.837 517.907 324.061C516.465 323.262 515.334 322.176 514.513 320.8C513.693 319.425 513.282 317.861 513.282 316.109C513.282 314.334 513.693 312.771 514.513 311.418C515.334 310.042 516.465 308.967 517.907 308.19C519.371 307.414 521.035 307.026 522.898 307.026C524.628 307.026 526.147 307.381 527.456 308.09C528.787 308.778 529.796 309.798 530.484 311.151L527.29 313.015C526.757 312.172 526.103 311.551 525.327 311.151C524.572 310.752 523.752 310.553 522.865 310.553C521.844 310.553 520.924 310.774 520.103 311.218C519.282 311.662 518.639 312.305 518.173 313.148C517.707 313.969 517.474 314.956 517.474 316.109C517.474 317.262 517.707 318.261 518.173 319.103C518.639 319.924 519.282 320.556 520.103 321C520.924 321.444 521.844 321.665 522.865 321.665C523.752 321.665 524.572 321.466 525.327 321.066C526.103 320.667 526.757 320.046 527.29 319.203L530.484 321.066C529.796 322.397 528.787 323.429 527.456 324.161C526.147 324.871 524.628 325.225 522.898 325.225ZM541.804 325.225C539.985 325.225 538.366 324.837 536.947 324.061C535.527 323.262 534.407 322.176 533.586 320.8C532.765 319.425 532.355 317.861 532.355 316.109C532.355 314.334 532.765 312.771 533.586 311.418C534.407 310.042 535.527 308.967 536.947 308.19C538.366 307.414 539.985 307.026 541.804 307.026C543.645 307.026 545.276 307.414 546.695 308.19C548.137 308.967 549.257 310.031 550.056 311.384C550.876 312.737 551.287 314.312 551.287 316.109C551.287 317.861 550.876 319.425 550.056 320.8C549.257 322.176 548.137 323.262 546.695 324.061C545.276 324.837 543.645 325.225 541.804 325.225ZM541.804 321.665C542.825 321.665 543.734 321.444 544.533 321C545.331 320.556 545.952 319.913 546.396 319.07C546.862 318.227 547.094 317.24 547.094 316.109C547.094 314.956 546.862 313.969 546.396 313.148C545.952 312.305 545.331 311.662 544.533 311.218C543.734 310.774 542.836 310.553 541.837 310.553C540.817 310.553 539.908 310.774 539.109 311.218C538.333 311.662 537.712 312.305 537.246 313.148C536.78 313.969 536.547 314.956 536.547 316.109C536.547 317.24 536.78 318.227 537.246 319.07C537.712 319.913 538.333 320.556 539.109 321C539.908 321.444 540.806 321.665 541.804 321.665ZM577.689 307.026C579.108 307.026 580.362 307.303 581.449 307.858C582.558 308.412 583.423 309.266 584.044 310.42C584.665 311.551 584.975 313.015 584.975 314.811V324.993H580.816V315.344C580.816 313.769 580.473 312.593 579.785 311.817C579.097 311.041 578.11 310.652 576.824 310.652C575.914 310.652 575.105 310.852 574.395 311.251C573.707 311.651 573.164 312.238 572.765 313.015C572.388 313.791 572.199 314.778 572.199 315.976V324.993H568.04V315.344C568.04 313.769 567.696 312.593 567.009 311.817C566.321 311.041 565.334 310.652 564.047 310.652C563.138 310.652 562.328 310.852 561.619 311.251C560.931 311.651 560.388 312.238 559.988 313.015C559.611 313.791 559.423 314.778 559.423 315.976V324.993H555.264V307.225H559.223V311.95L558.524 310.553C559.123 309.399 559.988 308.523 561.12 307.924C562.273 307.325 563.582 307.026 565.046 307.026C566.709 307.026 568.151 307.436 569.371 308.257C570.613 309.078 571.434 310.32 571.833 311.983L570.203 311.418C570.779 310.087 571.733 309.022 573.064 308.224C574.395 307.425 575.937 307.026 577.689 307.026ZM600.138 325.225C598.697 325.225 597.377 324.893 596.179 324.227C595.004 323.562 594.061 322.564 593.351 321.233C592.663 319.88 592.32 318.172 592.32 316.109C592.32 314.024 592.652 312.316 593.318 310.985C594.005 309.654 594.937 308.667 596.113 308.024C597.288 307.359 598.63 307.026 600.138 307.026C601.891 307.026 603.432 307.403 604.763 308.157C606.116 308.911 607.181 309.965 607.957 311.318C608.756 312.671 609.155 314.268 609.155 316.109C609.155 317.95 608.756 319.558 607.957 320.933C607.181 322.286 606.116 323.34 604.763 324.094C603.432 324.848 601.891 325.225 600.138 325.225ZM590.29 331.447V307.225H594.249V311.418L594.116 316.142L594.449 320.867V331.447H590.29ZM599.673 321.665C600.671 321.665 601.558 321.444 602.334 321C603.133 320.556 603.765 319.913 604.231 319.07C604.697 318.227 604.93 317.24 604.93 316.109C604.93 314.956 604.697 313.969 604.231 313.148C603.765 312.305 603.133 311.662 602.334 311.218C601.558 310.774 600.671 310.553 599.673 310.553C598.675 310.553 597.776 310.774 596.978 311.218C596.179 311.662 595.547 312.305 595.081 313.148C594.615 313.969 594.382 314.956 594.382 316.109C594.382 317.24 594.615 318.227 595.081 319.07C595.547 319.913 596.179 320.556 596.978 321C597.776 321.444 598.675 321.665 599.673 321.665ZM623.818 324.993V321.399L623.585 320.634V314.346C623.585 313.126 623.219 312.183 622.487 311.517C621.755 310.83 620.646 310.486 619.16 310.486C618.162 310.486 617.175 310.641 616.199 310.952C615.245 311.262 614.436 311.695 613.77 312.249L612.14 309.222C613.094 308.49 614.225 307.946 615.534 307.591C616.865 307.214 618.24 307.026 619.659 307.026C622.232 307.026 624.218 307.647 625.615 308.889C627.035 310.109 627.744 312.005 627.744 314.578V324.993H623.818ZM618.229 325.225C616.898 325.225 615.733 325.004 614.735 324.56C613.737 324.094 612.961 323.462 612.406 322.664C611.874 321.843 611.608 320.922 611.608 319.902C611.608 318.904 611.841 318.005 612.306 317.207C612.794 316.408 613.582 315.776 614.669 315.31C615.755 314.845 617.197 314.612 618.994 314.612H624.151V317.373H619.293C617.874 317.373 616.92 317.606 616.432 318.072C615.944 318.516 615.7 319.07 615.7 319.736C615.7 320.49 615.999 321.089 616.598 321.532C617.197 321.976 618.029 322.198 619.094 322.198C620.114 322.198 621.024 321.965 621.822 321.499C622.643 321.033 623.231 320.346 623.585 319.436L624.284 321.932C623.885 322.974 623.164 323.784 622.121 324.36C621.101 324.937 619.804 325.225 618.229 325.225ZM643.163 307.026C644.583 307.026 645.847 307.303 646.956 307.858C648.087 308.412 648.975 309.266 649.618 310.42C650.261 311.551 650.583 313.015 650.583 314.811V324.993H646.424V315.344C646.424 313.769 646.047 312.593 645.293 311.817C644.561 311.041 643.529 310.652 642.198 310.652C641.222 310.652 640.357 310.852 639.603 311.251C638.849 311.651 638.261 312.249 637.84 313.048C637.441 313.824 637.241 314.811 637.241 316.009V324.993H633.082V307.225H637.041V312.017L636.343 310.553C636.964 309.421 637.862 308.556 639.038 307.957C640.235 307.336 641.611 307.026 643.163 307.026ZM656.998 331.68C656.133 331.68 655.268 331.536 654.403 331.248C653.538 330.959 652.817 330.56 652.24 330.05L653.904 326.989C654.325 327.366 654.802 327.665 655.334 327.887C655.867 328.109 656.41 328.22 656.965 328.22C657.719 328.22 658.329 328.031 658.795 327.654C659.26 327.277 659.693 326.645 660.092 325.758L661.124 323.429L661.456 322.93L668.177 307.225H672.17L663.852 326.423C663.297 327.754 662.676 328.808 661.989 329.584C661.323 330.36 660.569 330.904 659.726 331.214C658.905 331.525 657.996 331.68 656.998 331.68ZM660.658 325.625L652.639 307.225H656.965L663.486 322.564L660.658 325.625ZM689.454 325.225C687.968 325.225 686.537 325.037 685.162 324.66C683.809 324.261 682.733 323.784 681.935 323.229L683.532 320.068C684.33 320.578 685.284 321 686.393 321.333C687.502 321.665 688.611 321.832 689.72 321.832C691.029 321.832 691.972 321.654 692.548 321.299C693.147 320.944 693.447 320.468 693.447 319.869C693.447 319.381 693.247 319.015 692.848 318.771C692.449 318.505 691.927 318.305 691.284 318.172C690.641 318.039 689.92 317.917 689.121 317.806C688.345 317.695 687.558 317.551 686.759 317.373C685.983 317.174 685.273 316.896 684.63 316.542C683.987 316.164 683.465 315.665 683.066 315.044C682.667 314.423 682.467 313.603 682.467 312.582C682.467 311.451 682.789 310.475 683.432 309.654C684.075 308.811 684.974 308.168 686.127 307.725C687.303 307.259 688.689 307.026 690.286 307.026C691.484 307.026 692.693 307.159 693.913 307.425C695.133 307.691 696.142 308.068 696.94 308.556L695.343 311.717C694.5 311.207 693.646 310.863 692.781 310.686C691.938 310.486 691.096 310.386 690.253 310.386C688.988 310.386 688.046 310.575 687.425 310.952C686.826 311.329 686.526 311.806 686.526 312.383C686.526 312.915 686.726 313.314 687.125 313.58C687.524 313.847 688.046 314.057 688.689 314.213C689.332 314.368 690.042 314.501 690.818 314.612C691.617 314.7 692.404 314.845 693.181 315.044C693.957 315.244 694.667 315.521 695.31 315.876C695.975 316.209 696.508 316.686 696.907 317.307C697.306 317.928 697.506 318.737 697.506 319.736C697.506 320.845 697.173 321.81 696.508 322.63C695.865 323.451 694.944 324.094 693.746 324.56C692.548 325.004 691.118 325.225 689.454 325.225ZM710.936 325.225C709.494 325.225 708.174 324.893 706.977 324.227C705.801 323.562 704.858 322.564 704.149 321.233C703.461 319.88 703.117 318.172 703.117 316.109C703.117 314.024 703.45 312.316 704.115 310.985C704.803 309.654 705.735 308.667 706.91 308.024C708.086 307.359 709.428 307.026 710.936 307.026C712.688 307.026 714.23 307.403 715.561 308.157C716.914 308.911 717.979 309.965 718.755 311.318C719.553 312.671 719.953 314.268 719.953 316.109C719.953 317.95 719.553 319.558 718.755 320.933C717.979 322.286 716.914 323.34 715.561 324.094C714.23 324.848 712.688 325.225 710.936 325.225ZM701.088 331.447V307.225H705.047V311.418L704.914 316.142L705.247 320.867V331.447H701.088ZM710.47 321.665C711.468 321.665 712.356 321.444 713.132 321C713.931 320.556 714.563 319.913 715.028 319.07C715.494 318.227 715.727 317.24 715.727 316.109C715.727 314.956 715.494 313.969 715.028 313.148C714.563 312.305 713.931 311.662 713.132 311.218C712.356 310.774 711.468 310.553 710.47 310.553C709.472 310.553 708.574 310.774 707.775 311.218C706.977 311.662 706.345 312.305 705.879 313.148C705.413 313.969 705.18 314.956 705.18 316.109C705.18 317.24 705.413 318.227 705.879 319.07C706.345 319.913 706.977 320.556 707.775 321C708.574 321.444 709.472 321.665 710.47 321.665ZM732.248 325.225C730.274 325.225 728.544 324.837 727.058 324.061C725.594 323.262 724.451 322.176 723.631 320.8C722.832 319.425 722.433 317.861 722.433 316.109C722.433 314.334 722.821 312.771 723.598 311.418C724.396 310.042 725.483 308.967 726.858 308.19C728.256 307.414 729.842 307.026 731.616 307.026C733.346 307.026 734.888 307.403 736.241 308.157C737.594 308.911 738.659 309.976 739.435 311.351C740.211 312.726 740.599 314.346 740.599 316.209C740.599 316.386 740.588 316.586 740.566 316.808C740.566 317.03 740.555 317.24 740.533 317.44H725.727V314.678H738.337L736.707 315.543C736.729 314.523 736.518 313.625 736.074 312.848C735.631 312.072 735.021 311.462 734.244 311.018C733.49 310.575 732.614 310.353 731.616 310.353C730.596 310.353 729.697 310.575 728.921 311.018C728.167 311.462 727.568 312.083 727.124 312.882C726.703 313.658 726.492 314.578 726.492 315.643V316.309C726.492 317.373 726.736 318.316 727.224 319.137C727.712 319.957 728.4 320.59 729.287 321.033C730.174 321.477 731.195 321.699 732.348 321.699C733.346 321.699 734.244 321.543 735.043 321.233C735.842 320.922 736.551 320.434 737.172 319.769L739.402 322.331C738.603 323.262 737.594 323.983 736.374 324.493C735.176 324.981 733.801 325.225 732.248 325.225ZM754.676 307.026C756.095 307.026 757.36 307.303 758.469 307.858C759.6 308.412 760.487 309.266 761.13 310.42C761.774 311.551 762.095 313.015 762.095 314.811V324.993H757.936V315.344C757.936 313.769 757.559 312.593 756.805 311.817C756.073 311.041 755.042 310.652 753.711 310.652C752.735 310.652 751.87 310.852 751.116 311.251C750.361 311.651 749.774 312.249 749.352 313.048C748.953 313.824 748.753 314.811 748.753 316.009V324.993H744.594V307.225H748.554V312.017L747.855 310.553C748.476 309.421 749.374 308.556 750.55 307.957C751.748 307.336 753.123 307.026 754.676 307.026ZM774.923 325.225C773.215 325.225 771.674 324.848 770.298 324.094C768.945 323.318 767.881 322.253 767.104 320.9C766.328 319.547 765.94 317.95 765.94 316.109C765.94 314.268 766.328 312.671 767.104 311.318C767.881 309.965 768.945 308.911 770.298 308.157C771.674 307.403 773.215 307.026 774.923 307.026C776.409 307.026 777.74 307.359 778.916 308.024C780.091 308.667 781.023 309.654 781.711 310.985C782.398 312.316 782.742 314.024 782.742 316.109C782.742 318.172 782.409 319.88 781.744 321.233C781.078 322.564 780.158 323.562 778.982 324.227C777.807 324.893 776.454 325.225 774.923 325.225ZM775.422 321.665C776.42 321.665 777.308 321.444 778.084 321C778.882 320.556 779.515 319.913 779.98 319.07C780.468 318.227 780.712 317.24 780.712 316.109C780.712 314.956 780.468 313.969 779.98 313.148C779.515 312.305 778.882 311.662 778.084 311.218C777.308 310.774 776.42 310.553 775.422 310.553C774.424 310.553 773.526 310.774 772.727 311.218C771.951 311.662 771.319 312.305 770.831 313.148C770.365 313.969 770.132 314.956 770.132 316.109C770.132 317.24 770.365 318.227 770.831 319.07C771.319 319.913 771.951 320.556 772.727 321C773.526 321.444 774.424 321.665 775.422 321.665ZM780.812 324.993V320.8L780.979 316.076L780.646 311.351V300.305H784.772V324.993H780.812Z" fill="black"/>
<rect x="613.071" y="135.541" width="97.8581" height="97.8581" rx="48.9291" fill="black"/>
<path d="M676.881 199.902V206.263H646.728V200.82L661.193 185.193C662.701 183.48 663.894 181.992 664.771 180.728C665.647 179.464 666.269 178.322 666.636 177.303C667.023 176.263 667.217 175.274 667.217 174.337C667.217 172.971 666.972 171.778 666.483 170.759C665.994 169.719 665.28 168.914 664.342 168.343C663.425 167.772 662.294 167.487 660.948 167.487C659.46 167.487 658.186 167.833 657.125 168.526C656.086 169.199 655.291 170.137 654.74 171.34C654.21 172.543 653.945 173.919 653.945 175.468H645.841C645.841 172.838 646.453 170.443 647.676 168.282C648.899 166.1 650.653 164.357 652.936 163.052C655.219 161.748 657.931 161.095 661.07 161.095C664.128 161.095 666.718 161.605 668.838 162.624C670.958 163.623 672.569 165.05 673.67 166.906C674.77 168.761 675.321 170.973 675.321 173.542C675.321 174.969 675.086 176.375 674.618 177.762C674.149 179.148 673.486 180.524 672.63 181.89C671.794 183.236 670.795 184.602 669.633 185.988C668.471 187.374 667.176 188.791 665.749 190.239L657.064 199.902H676.881Z" fill="white"/>
<path d="M940.194 283.993V260.702H949.776C951.839 260.702 953.602 261.035 955.066 261.7C956.552 262.366 957.695 263.32 958.493 264.562C959.292 265.804 959.691 267.279 959.691 268.987C959.691 270.695 959.292 272.17 958.493 273.412C957.695 274.654 956.552 275.608 955.066 276.274C953.602 276.939 951.839 277.272 949.776 277.272H942.589L944.519 275.242V283.993H940.194ZM944.519 275.708L942.589 273.612H949.576C951.484 273.612 952.915 273.213 953.869 272.414C954.844 271.593 955.332 270.451 955.332 268.987C955.332 267.501 954.844 266.359 953.869 265.56C952.915 264.761 951.484 264.362 949.576 264.362H942.589L944.519 262.233V275.708ZM974.395 283.993V280.399L974.162 279.634V273.346C974.162 272.126 973.796 271.183 973.064 270.517C972.332 269.83 971.223 269.486 969.737 269.486C968.739 269.486 967.752 269.641 966.776 269.952C965.822 270.262 965.012 270.695 964.347 271.249L962.717 268.222C963.671 267.49 964.802 266.946 966.11 266.591C967.441 266.214 968.817 266.026 970.236 266.026C972.809 266.026 974.794 266.647 976.192 267.889C977.611 269.109 978.321 271.005 978.321 273.578V283.993H974.395ZM968.805 284.225C967.475 284.225 966.31 284.004 965.312 283.56C964.314 283.094 963.537 282.462 962.983 281.664C962.451 280.843 962.184 279.922 962.184 278.902C962.184 277.904 962.417 277.005 962.883 276.207C963.371 275.408 964.159 274.776 965.245 274.31C966.332 273.845 967.774 273.612 969.571 273.612H974.728V276.373H969.87C968.451 276.373 967.497 276.606 967.009 277.072C966.521 277.516 966.277 278.07 966.277 278.736C966.277 279.49 966.576 280.089 967.175 280.532C967.774 280.976 968.606 281.198 969.671 281.198C970.691 281.198 971.6 280.965 972.399 280.499C973.22 280.033 973.807 279.346 974.162 278.436L974.861 280.932C974.462 281.974 973.741 282.784 972.698 283.36C971.678 283.937 970.38 284.225 968.805 284.225ZM984.798 290.68C983.933 290.68 983.068 290.536 982.203 290.248C981.337 289.959 980.617 289.56 980.04 289.05L981.703 285.989C982.125 286.366 982.602 286.665 983.134 286.887C983.667 287.109 984.21 287.22 984.764 287.22C985.519 287.22 986.129 287.031 986.594 286.654C987.06 286.277 987.493 285.645 987.892 284.758L988.923 282.429L989.256 281.93L995.977 266.225H999.97L991.652 285.423C991.097 286.754 990.476 287.808 989.789 288.584C989.123 289.36 988.369 289.904 987.526 290.214C986.705 290.525 985.796 290.68 984.798 290.68ZM988.458 284.625L980.439 266.225H984.764L991.286 281.564L988.458 284.625ZM1002.57 283.993V266.225H1006.73V283.993H1002.57ZM1004.67 263.298C1003.89 263.298 1003.25 263.054 1002.74 262.566C1002.25 262.078 1002 261.49 1002 260.802C1002 260.092 1002.25 259.505 1002.74 259.039C1003.25 258.551 1003.89 258.307 1004.67 258.307C1005.44 258.307 1006.07 258.54 1006.56 259.005C1007.07 259.449 1007.33 260.015 1007.33 260.702C1007.33 261.434 1007.08 262.055 1006.59 262.566C1006.11 263.054 1005.46 263.298 1004.67 263.298ZM1022.27 266.026C1023.69 266.026 1024.95 266.303 1026.06 266.858C1027.19 267.412 1028.08 268.266 1028.72 269.42C1029.37 270.551 1029.69 272.015 1029.69 273.811V283.993H1025.53V274.344C1025.53 272.769 1025.15 271.593 1024.4 270.817C1023.67 270.041 1022.63 269.652 1021.3 269.652C1020.33 269.652 1019.46 269.852 1018.71 270.251C1017.95 270.651 1017.37 271.249 1016.94 272.048C1016.55 272.824 1016.35 273.811 1016.35 275.009V283.993H1012.19V266.225H1016.15V271.017L1015.45 269.553C1016.07 268.421 1016.97 267.556 1018.14 266.957C1019.34 266.336 1020.72 266.026 1022.27 266.026ZM1043.05 290.68C1041.41 290.68 1039.8 290.458 1038.22 290.015C1036.67 289.593 1035.4 288.972 1034.4 288.152L1036.26 285.024C1037.04 285.667 1038.01 286.177 1039.19 286.554C1040.39 286.954 1041.59 287.153 1042.81 287.153C1044.77 287.153 1046.2 286.699 1047.11 285.789C1048.02 284.902 1048.47 283.56 1048.47 281.763V278.603L1048.8 274.577L1048.67 270.551V266.225H1052.63V281.298C1052.63 284.514 1051.81 286.876 1050.17 288.384C1048.53 289.915 1046.15 290.68 1043.05 290.68ZM1042.52 283.194C1040.83 283.194 1039.3 282.839 1037.92 282.129C1036.57 281.397 1035.5 280.388 1034.7 279.102C1033.92 277.815 1033.53 276.307 1033.53 274.577C1033.53 272.869 1033.92 271.371 1034.7 270.085C1035.5 268.798 1036.57 267.8 1037.92 267.09C1039.3 266.381 1040.83 266.026 1042.52 266.026C1044.02 266.026 1045.38 266.325 1046.57 266.924C1047.77 267.523 1048.73 268.455 1049.44 269.719C1050.17 270.983 1050.53 272.603 1050.53 274.577C1050.53 276.551 1050.17 278.181 1049.44 279.468C1048.73 280.732 1047.77 281.675 1046.57 282.296C1045.38 282.895 1044.02 283.194 1042.52 283.194ZM1043.15 279.667C1044.19 279.667 1045.12 279.457 1045.94 279.035C1046.76 278.591 1047.4 277.993 1047.84 277.238C1048.3 276.462 1048.54 275.575 1048.54 274.577C1048.54 273.578 1048.3 272.702 1047.84 271.948C1047.4 271.172 1046.76 270.584 1045.94 270.185C1045.12 269.763 1044.19 269.553 1043.15 269.553C1042.11 269.553 1041.16 269.763 1040.32 270.185C1039.5 270.584 1038.86 271.172 1038.39 271.948C1037.95 272.702 1037.72 273.578 1037.72 274.577C1037.72 275.575 1037.95 276.462 1038.39 277.238C1038.86 277.993 1039.5 278.591 1040.32 279.035C1041.16 279.457 1042.11 279.667 1043.15 279.667ZM1068.76 290.68C1067.89 290.68 1067.03 290.536 1066.16 290.248C1065.3 289.959 1064.58 289.56 1064 289.05L1065.66 285.989C1066.08 286.366 1066.56 286.665 1067.09 286.887C1067.63 287.109 1068.17 287.22 1068.72 287.22C1069.48 287.22 1070.09 287.031 1070.55 286.654C1071.02 286.277 1071.45 285.645 1071.85 284.758L1072.88 282.429L1073.22 281.93L1079.94 266.225H1083.93L1075.61 285.423C1075.06 286.754 1074.44 287.808 1073.75 288.584C1073.08 289.36 1072.33 289.904 1071.49 290.214C1070.66 290.525 1069.76 290.68 1068.76 290.68ZM1072.42 284.625L1064.4 266.225H1068.72L1075.24 281.564L1072.42 284.625ZM1094.03 284.225C1092.21 284.225 1090.59 283.837 1089.17 283.061C1087.75 282.262 1086.63 281.176 1085.81 279.8C1084.99 278.425 1084.58 276.861 1084.58 275.109C1084.58 273.334 1084.99 271.771 1085.81 270.418C1086.63 269.042 1087.75 267.967 1089.17 267.19C1090.59 266.414 1092.21 266.026 1094.03 266.026C1095.87 266.026 1097.5 266.414 1098.92 267.19C1100.36 267.967 1101.48 269.031 1102.28 270.384C1103.1 271.737 1103.51 273.312 1103.51 275.109C1103.51 276.861 1103.1 278.425 1102.28 279.8C1101.48 281.176 1100.36 282.262 1098.92 283.061C1097.5 283.837 1095.87 284.225 1094.03 284.225ZM1094.03 280.665C1095.05 280.665 1095.96 280.444 1096.75 280C1097.55 279.556 1098.17 278.913 1098.62 278.07C1099.08 277.227 1099.32 276.24 1099.32 275.109C1099.32 273.956 1099.08 272.969 1098.62 272.148C1098.17 271.305 1097.55 270.662 1096.75 270.218C1095.96 269.774 1095.06 269.553 1094.06 269.553C1093.04 269.553 1092.13 269.774 1091.33 270.218C1090.55 270.662 1089.93 271.305 1089.47 272.148C1089 272.969 1088.77 273.956 1088.77 275.109C1088.77 276.24 1089 277.227 1089.47 278.07C1089.93 278.913 1090.55 279.556 1091.33 280C1092.13 280.444 1093.03 280.665 1094.03 280.665ZM1115 284.225C1113.5 284.225 1112.17 283.948 1111.01 283.394C1109.86 282.817 1108.96 281.952 1108.32 280.798C1107.67 279.623 1107.35 278.148 1107.35 276.373V266.225H1111.51V275.808C1111.51 277.405 1111.87 278.603 1112.58 279.401C1113.31 280.177 1114.34 280.566 1115.67 280.566C1116.65 280.566 1117.49 280.366 1118.2 279.967C1118.93 279.567 1119.5 278.969 1119.9 278.17C1120.32 277.371 1120.53 276.384 1120.53 275.209V266.225H1124.69V283.993H1120.73V279.201L1121.43 280.665C1120.83 281.819 1119.95 282.706 1118.8 283.327C1117.64 283.926 1116.38 284.225 1115 284.225ZM1130.13 283.993V266.225H1134.09V271.116L1133.63 269.686C1134.16 268.488 1134.99 267.578 1136.12 266.957C1137.27 266.336 1138.71 266.026 1140.41 266.026V269.985C1140.24 269.941 1140.07 269.919 1139.91 269.919C1139.76 269.896 1139.6 269.885 1139.45 269.885C1137.87 269.885 1136.62 270.351 1135.69 271.283C1134.76 272.192 1134.29 273.556 1134.29 275.375V283.993H1130.13ZM1158.02 283.993L1150.4 266.225H1154.73L1161.28 281.896H1159.16L1165.94 266.225H1169.94L1162.32 283.993H1158.02ZM1180.4 284.225C1178.42 284.225 1176.69 283.837 1175.21 283.061C1173.74 282.262 1172.6 281.176 1171.78 279.8C1170.98 278.425 1170.58 276.861 1170.58 275.109C1170.58 273.334 1170.97 271.771 1171.75 270.418C1172.55 269.042 1173.63 267.967 1175.01 267.19C1176.41 266.414 1177.99 266.026 1179.77 266.026C1181.5 266.026 1183.04 266.403 1184.39 267.157C1185.74 267.911 1186.81 268.976 1187.59 270.351C1188.36 271.726 1188.75 273.346 1188.75 275.209C1188.75 275.386 1188.74 275.586 1188.72 275.808C1188.72 276.03 1188.71 276.24 1188.68 276.44H1173.88V273.678H1186.49L1184.86 274.543C1184.88 273.523 1184.67 272.625 1184.22 271.848C1183.78 271.072 1183.17 270.462 1182.39 270.018C1181.64 269.575 1180.76 269.353 1179.77 269.353C1178.75 269.353 1177.85 269.575 1177.07 270.018C1176.32 270.462 1175.72 271.083 1175.27 271.882C1174.85 272.658 1174.64 273.578 1174.64 274.643V275.309C1174.64 276.373 1174.89 277.316 1175.37 278.137C1175.86 278.957 1176.55 279.59 1177.44 280.033C1178.32 280.477 1179.34 280.699 1180.5 280.699C1181.5 280.699 1182.39 280.543 1183.19 280.233C1183.99 279.922 1184.7 279.434 1185.32 278.769L1187.55 281.331C1186.75 282.262 1185.74 282.983 1184.52 283.493C1183.33 283.981 1181.95 284.225 1180.4 284.225ZM1202.83 266.026C1204.25 266.026 1205.51 266.303 1206.62 266.858C1207.75 267.412 1208.64 268.266 1209.28 269.42C1209.92 270.551 1210.25 272.015 1210.25 273.811V283.993H1206.09V274.344C1206.09 272.769 1205.71 271.593 1204.96 270.817C1204.22 270.041 1203.19 269.652 1201.86 269.652C1200.88 269.652 1200.02 269.852 1199.27 270.251C1198.51 270.651 1197.92 271.249 1197.5 272.048C1197.1 272.824 1196.9 273.811 1196.9 275.009V283.993H1192.74V266.225H1196.7V271.017L1196.01 269.553C1196.63 268.421 1197.52 267.556 1198.7 266.957C1199.9 266.336 1201.27 266.026 1202.83 266.026ZM1223.07 284.225C1221.37 284.225 1219.82 283.848 1218.45 283.094C1217.1 282.318 1216.03 281.253 1215.25 279.9C1214.48 278.547 1214.09 276.95 1214.09 275.109C1214.09 273.268 1214.48 271.671 1215.25 270.318C1216.03 268.965 1217.1 267.911 1218.45 267.157C1219.82 266.403 1221.37 266.026 1223.07 266.026C1224.56 266.026 1225.89 266.359 1227.07 267.024C1228.24 267.667 1229.17 268.654 1229.86 269.985C1230.55 271.316 1230.89 273.024 1230.89 275.109C1230.89 277.172 1230.56 278.88 1229.89 280.233C1229.23 281.564 1228.31 282.562 1227.13 283.227C1225.96 283.893 1224.6 284.225 1223.07 284.225ZM1223.57 280.665C1224.57 280.665 1225.46 280.444 1226.23 280C1227.03 279.556 1227.66 278.913 1228.13 278.07C1228.62 277.227 1228.86 276.24 1228.86 275.109C1228.86 273.956 1228.62 272.969 1228.13 272.148C1227.66 271.305 1227.03 270.662 1226.23 270.218C1225.46 269.774 1224.57 269.553 1223.57 269.553C1222.57 269.553 1221.68 269.774 1220.88 270.218C1220.1 270.662 1219.47 271.305 1218.98 272.148C1218.52 272.969 1218.28 273.956 1218.28 275.109C1218.28 276.24 1218.52 277.227 1218.98 278.07C1219.47 278.913 1220.1 279.556 1220.88 280C1221.68 280.444 1222.57 280.665 1223.57 280.665ZM1228.96 283.993V279.8L1229.13 275.076L1228.8 270.351V259.305H1232.92V283.993H1228.96ZM1246.38 284.225C1244.56 284.225 1242.94 283.837 1241.52 283.061C1240.1 282.262 1238.98 281.176 1238.16 279.8C1237.34 278.425 1236.93 276.861 1236.93 275.109C1236.93 273.334 1237.34 271.771 1238.16 270.418C1238.98 269.042 1240.1 267.967 1241.52 267.19C1242.94 266.414 1244.56 266.026 1246.38 266.026C1248.22 266.026 1249.85 266.414 1251.27 267.19C1252.71 267.967 1253.83 269.031 1254.63 270.384C1255.45 271.737 1255.86 273.312 1255.86 275.109C1255.86 276.861 1255.45 278.425 1254.63 279.8C1253.83 281.176 1252.71 282.262 1251.27 283.061C1249.85 283.837 1248.22 284.225 1246.38 284.225ZM1246.38 280.665C1247.4 280.665 1248.31 280.444 1249.11 280C1249.91 279.556 1250.53 278.913 1250.97 278.07C1251.44 277.227 1251.67 276.24 1251.67 275.109C1251.67 273.956 1251.44 272.969 1250.97 272.148C1250.53 271.305 1249.91 270.662 1249.11 270.218C1248.31 269.774 1247.41 269.553 1246.41 269.553C1245.39 269.553 1244.48 269.774 1243.69 270.218C1242.91 270.662 1242.29 271.305 1241.82 272.148C1241.36 272.969 1241.12 273.956 1241.12 275.109C1241.12 276.24 1241.36 277.227 1241.82 278.07C1242.29 278.913 1242.91 279.556 1243.69 280C1244.48 280.444 1245.38 280.665 1246.38 280.665ZM1259.84 283.993V266.225H1263.8V271.116L1263.33 269.686C1263.87 268.488 1264.7 267.578 1265.83 266.957C1266.98 266.336 1268.41 266.026 1270.12 266.026V269.985C1269.94 269.941 1269.78 269.919 1269.62 269.919C1269.47 269.896 1269.31 269.885 1269.16 269.885C1267.58 269.885 1266.33 270.351 1265.4 271.283C1264.47 272.192 1264 273.556 1264 275.375V283.993H1259.84ZM1279.3 284.225C1277.82 284.225 1276.38 284.037 1275.01 283.66C1273.66 283.261 1272.58 282.784 1271.78 282.229L1273.38 279.068C1274.18 279.578 1275.13 280 1276.24 280.333C1277.35 280.665 1278.46 280.832 1279.57 280.832C1280.88 280.832 1281.82 280.654 1282.4 280.299C1282.99 279.944 1283.29 279.468 1283.29 278.869C1283.29 278.381 1283.09 278.015 1282.7 277.771C1282.3 277.505 1281.77 277.305 1281.13 277.172C1280.49 277.039 1279.77 276.917 1278.97 276.806C1278.19 276.695 1277.41 276.551 1276.61 276.373C1275.83 276.174 1275.12 275.896 1274.48 275.542C1273.83 275.164 1273.31 274.665 1272.91 274.044C1272.51 273.423 1272.31 272.603 1272.31 271.582C1272.31 270.451 1272.64 269.475 1273.28 268.654C1273.92 267.811 1274.82 267.168 1275.97 266.725C1277.15 266.259 1278.54 266.026 1280.13 266.026C1281.33 266.026 1282.54 266.159 1283.76 266.425C1284.98 266.691 1285.99 267.068 1286.79 267.556L1285.19 270.717C1284.35 270.207 1283.49 269.863 1282.63 269.686C1281.79 269.486 1280.94 269.386 1280.1 269.386C1278.84 269.386 1277.89 269.575 1277.27 269.952C1276.67 270.329 1276.37 270.806 1276.37 271.383C1276.37 271.915 1276.57 272.314 1276.97 272.58C1277.37 272.847 1277.89 273.057 1278.54 273.213C1279.18 273.368 1279.89 273.501 1280.67 273.612C1281.46 273.7 1282.25 273.845 1283.03 274.044C1283.8 274.244 1284.51 274.521 1285.16 274.876C1285.82 275.209 1286.36 275.686 1286.75 276.307C1287.15 276.928 1287.35 277.737 1287.35 278.736C1287.35 279.845 1287.02 280.81 1286.36 281.63C1285.71 282.451 1284.79 283.094 1283.59 283.56C1282.4 284.004 1280.97 284.225 1279.3 284.225ZM1054.94 325.225C1053.12 325.225 1051.5 324.837 1050.08 324.061C1048.66 323.262 1047.54 322.176 1046.72 320.8C1045.9 319.425 1045.49 317.861 1045.49 316.109C1045.49 314.334 1045.9 312.771 1046.72 311.418C1047.54 310.042 1048.66 308.967 1050.08 308.19C1051.5 307.414 1053.12 307.026 1054.94 307.026C1056.78 307.026 1058.41 307.414 1059.83 308.19C1061.27 308.967 1062.39 310.031 1063.19 311.384C1064.01 312.737 1064.42 314.312 1064.42 316.109C1064.42 317.861 1064.01 319.425 1063.19 320.8C1062.39 322.176 1061.27 323.262 1059.83 324.061C1058.41 324.837 1056.78 325.225 1054.94 325.225ZM1054.94 321.665C1055.96 321.665 1056.87 321.444 1057.67 321C1058.47 320.556 1059.09 319.913 1059.53 319.07C1060 318.227 1060.23 317.24 1060.23 316.109C1060.23 314.956 1060 313.969 1059.53 313.148C1059.09 312.305 1058.47 311.662 1057.67 311.218C1056.87 310.774 1055.97 310.553 1054.97 310.553C1053.95 310.553 1053.04 310.774 1052.24 311.218C1051.47 311.662 1050.85 312.305 1050.38 313.148C1049.91 313.969 1049.68 314.956 1049.68 316.109C1049.68 317.24 1049.91 318.227 1050.38 319.07C1050.85 319.913 1051.47 320.556 1052.24 321C1053.04 321.444 1053.94 321.665 1054.94 321.665ZM1078.48 307.026C1079.9 307.026 1081.16 307.303 1082.27 307.858C1083.4 308.412 1084.29 309.266 1084.93 310.42C1085.58 311.551 1085.9 313.015 1085.9 314.811V324.993H1081.74V315.344C1081.74 313.769 1081.36 312.593 1080.61 311.817C1079.88 311.041 1078.85 310.652 1077.51 310.652C1076.54 310.652 1075.67 310.852 1074.92 311.251C1074.16 311.651 1073.58 312.249 1073.16 313.048C1072.76 313.824 1072.56 314.811 1072.56 316.009V324.993H1068.4V307.225H1072.36V312.017L1071.66 310.553C1072.28 309.421 1073.18 308.556 1074.35 307.957C1075.55 307.336 1076.93 307.026 1078.48 307.026ZM1090.28 317.473V314.013H1099.43V317.473H1090.28ZM1110.99 325.225C1109.04 325.225 1107.53 324.726 1106.46 323.728C1105.4 322.708 1104.87 321.211 1104.87 319.237V303.299H1109.03V319.137C1109.03 319.98 1109.24 320.634 1109.66 321.1C1110.1 321.566 1110.71 321.798 1111.49 321.798C1112.42 321.798 1113.2 321.554 1113.82 321.066L1114.98 324.028C1114.49 324.427 1113.89 324.726 1113.18 324.926C1112.48 325.126 1111.74 325.225 1110.99 325.225ZM1101.94 310.686V307.359H1113.78V310.686H1101.94ZM1118.4 324.993V307.225H1122.56V324.993H1118.4ZM1120.5 304.298C1119.72 304.298 1119.08 304.054 1118.57 303.566C1118.08 303.078 1117.84 302.49 1117.84 301.802C1117.84 301.092 1118.08 300.505 1118.57 300.039C1119.08 299.551 1119.72 299.307 1120.5 299.307C1121.28 299.307 1121.91 299.54 1122.4 300.005C1122.91 300.449 1123.16 301.015 1123.16 301.702C1123.16 302.434 1122.92 303.055 1122.43 303.566C1121.94 304.054 1121.3 304.298 1120.5 304.298ZM1150.45 307.026C1151.87 307.026 1153.12 307.303 1154.21 307.858C1155.31 308.412 1156.18 309.266 1156.8 310.42C1157.42 311.551 1157.73 313.015 1157.73 314.811V324.993H1153.57V315.344C1153.57 313.769 1153.23 312.593 1152.54 311.817C1151.85 311.041 1150.87 310.652 1149.58 310.652C1148.67 310.652 1147.86 310.852 1147.15 311.251C1146.46 311.651 1145.92 312.238 1145.52 313.015C1145.14 313.791 1144.96 314.778 1144.96 315.976V324.993H1140.8V315.344C1140.8 313.769 1140.45 312.593 1139.77 311.817C1139.08 311.041 1138.09 310.652 1136.8 310.652C1135.89 310.652 1135.09 310.852 1134.38 311.251C1133.69 311.651 1133.14 312.238 1132.75 313.015C1132.37 313.791 1132.18 314.778 1132.18 315.976V324.993H1128.02V307.225H1131.98V311.95L1131.28 310.553C1131.88 309.399 1132.75 308.523 1133.88 307.924C1135.03 307.325 1136.34 307.026 1137.8 307.026C1139.47 307.026 1140.91 307.436 1142.13 308.257C1143.37 309.078 1144.19 310.32 1144.59 311.983L1142.96 311.418C1143.54 310.087 1144.49 309.022 1145.82 308.224C1147.15 307.425 1148.69 307.026 1150.45 307.026ZM1171.43 325.225C1169.46 325.225 1167.73 324.837 1166.24 324.061C1164.78 323.262 1163.63 322.176 1162.81 320.8C1162.01 319.425 1161.62 317.861 1161.62 316.109C1161.62 314.334 1162 312.771 1162.78 311.418C1163.58 310.042 1164.67 308.967 1166.04 308.19C1167.44 307.414 1169.02 307.026 1170.8 307.026C1172.53 307.026 1174.07 307.403 1175.42 308.157C1176.78 308.911 1177.84 309.976 1178.62 311.351C1179.39 312.726 1179.78 314.346 1179.78 316.209C1179.78 316.386 1179.77 316.586 1179.75 316.808C1179.75 317.03 1179.74 317.24 1179.72 317.44H1164.91V314.678H1177.52L1175.89 315.543C1175.91 314.523 1175.7 313.625 1175.26 312.848C1174.81 312.072 1174.2 311.462 1173.43 311.018C1172.67 310.575 1171.8 310.353 1170.8 310.353C1169.78 310.353 1168.88 310.575 1168.1 311.018C1167.35 311.462 1166.75 312.083 1166.31 312.882C1165.89 313.658 1165.67 314.578 1165.67 315.643V316.309C1165.67 317.373 1165.92 318.316 1166.41 319.137C1166.89 319.957 1167.58 320.59 1168.47 321.033C1169.36 321.477 1170.38 321.699 1171.53 321.699C1172.53 321.699 1173.43 321.543 1174.23 321.233C1175.02 320.922 1175.73 320.434 1176.35 319.769L1178.58 322.331C1177.79 323.262 1176.78 323.983 1175.56 324.493C1174.36 324.981 1172.98 325.225 1171.43 325.225Z" fill="black"/>
<rect x="1095.51" y="134.563" width="97.8581" height="97.8581" rx="48.9291" fill="black"/>
<path d="M1138.01 179.444H1142.56C1144.17 179.444 1145.5 179.168 1146.54 178.618C1147.6 178.047 1148.38 177.272 1148.89 176.294C1149.42 175.295 1149.69 174.143 1149.69 172.838C1149.69 171.554 1149.45 170.443 1148.99 169.505C1148.52 168.547 1147.8 167.813 1146.84 167.303C1145.91 166.773 1144.7 166.508 1143.24 166.508C1142.05 166.508 1140.96 166.742 1139.96 167.211C1138.99 167.68 1138.2 168.353 1137.61 169.23C1137.04 170.086 1136.75 171.116 1136.75 172.318H1128.65C1128.65 169.913 1129.28 167.803 1130.55 165.988C1131.83 164.153 1133.56 162.716 1135.74 161.676C1137.93 160.637 1140.36 160.117 1143.05 160.117C1145.99 160.117 1148.56 160.606 1150.76 161.585C1152.98 162.543 1154.7 163.96 1155.93 165.835C1157.17 167.711 1157.79 170.035 1157.79 172.808C1157.79 174.133 1157.48 175.458 1156.84 176.783C1156.23 178.088 1155.33 179.27 1154.12 180.331C1152.94 181.37 1151.48 182.216 1149.75 182.869C1148.04 183.501 1146.07 183.817 1143.85 183.817H1138.01V179.444ZM1138.01 185.682V181.37H1143.85C1146.36 181.37 1148.53 181.666 1150.36 182.257C1152.22 182.828 1153.75 183.643 1154.95 184.704C1156.15 185.743 1157.04 186.956 1157.61 188.343C1158.2 189.729 1158.5 191.217 1158.5 192.807C1158.5 194.887 1158.11 196.742 1157.33 198.373C1156.56 199.984 1155.47 201.35 1154.06 202.471C1152.68 203.592 1151.04 204.448 1149.17 205.04C1147.29 205.611 1145.26 205.896 1143.08 205.896C1141.19 205.896 1139.34 205.641 1137.55 205.131C1135.77 204.601 1134.17 203.816 1132.75 202.777C1131.32 201.717 1130.19 200.391 1129.35 198.801C1128.52 197.191 1128.1 195.325 1128.1 193.205H1136.2C1136.2 194.428 1136.5 195.519 1137.09 196.477C1137.7 197.435 1138.54 198.19 1139.6 198.74C1140.68 199.27 1141.89 199.535 1143.24 199.535C1144.72 199.535 1146 199.27 1147.06 198.74C1148.14 198.19 1148.96 197.415 1149.54 196.416C1150.11 195.397 1150.39 194.184 1150.39 192.777C1150.39 191.105 1150.08 189.749 1149.44 188.71C1148.81 187.67 1147.9 186.905 1146.72 186.416C1145.56 185.927 1144.17 185.682 1142.56 185.682H1138.01Z" fill="white"/>
<circle cx="326.347" cy="135.541" r="7.82865" fill="#1EFC19"/>
<circle cx="350.811" cy="54.3191" r="14.6787" fill="#FC1919"/>
<circle cx="933.067" cy="388.015" r="14.6787" fill="#FC9E19"/>
<circle cx="1023.1" cy="184.47" r="7.82865" fill="#CBFC19"/>
</g>
<defs>
<clipPath id="clip0_115_582">
<rect x="0.478516" y="0.49707" width="1323.04" height="429.597" rx="45.9933" fill="white"/>
</clipPath>
</defs>
</svg>
